<svg preserveAspectRatio="none" width="100%" height="100%" overflow="visible" style="display: block;" viewBox="0 0 45.9994 96.0003" fill="none" xmlns="http://www.w3.org/2000/svg">
<path id="Logo" d="M38.9672 14.0119C39.6334 14.1138 40.1931 14.3097 40.474 14.592C41.2105 15.3328 41.6528 17.4071 40.9164 18.592C40.1793 19.7768 37.6747 21.2584 36.0541 22.2951C34.7573 23.1246 31.584 24.6151 30.1596 25.257C27.5081 25.8497 25.1501 28.0712 23.3823 28.9602C21.6144 29.8493 19.5509 33.5521 18.9614 35.4777C18.372 37.4033 17.9306 39.4774 18.5199 40.218C18.9911 40.8097 19.4037 40.3657 19.5512 40.0695C19.4041 38.1443 20.1406 35.4786 20.7299 33.9973C21.2013 32.8126 22.3011 31.4293 22.7924 30.8859C22.7927 33.256 24.8553 37.7 25.4448 38.1447C26.0327 38.5876 26.1815 37.8504 26.1821 37.7004C26.1817 37.5519 25.5924 36.5157 25.4448 36.219C25.2974 35.9228 22.7938 31.1836 23.8237 29.7014C24.6491 28.5166 27.9006 27.0352 29.4233 26.4426C29.3103 26.55 29.4243 27.8038 29.8871 28.9787C30.6645 30.952 30.552 31.2126 31.101 32.4572C31.6353 33.6687 32.9596 38.7371 33.2543 40.3664C33.3672 40.9907 33.4162 41.5951 33.4321 42.1037C33.2805 43.1876 32.9398 45.558 32.7846 46.4221C32.5899 47.504 30.9746 50.5307 30.2612 51.8928C29.548 53.2546 29.0911 54.682 28.1196 56.4328C27.1479 58.1842 26.3904 60.9187 26.3256 63.1887C26.2608 65.4585 26.2599 65.4408 26.7182 67.466C27.1763 69.4908 27.1003 69.402 27.3813 70.6916C27.805 72.6364 27.9512 73.2221 28.185 73.9094C28.406 74.5592 28.7547 75.1947 28.9448 75.2111C29.0063 75.2133 29.0345 74.8255 28.9887 74.6408C28.9157 74.3484 28.8431 74.0548 28.7846 73.5725C28.7262 73.0903 28.7259 73.0893 28.3754 71.4377C28.0247 69.7853 27.9415 69.3401 27.7612 68.2346C27.6557 67.5882 27.0883 66.4785 27.0883 62.7854C27.0884 59.0924 29.6768 55.3824 30.2612 53.7316C30.845 52.0813 33.3747 47.7585 33.5698 46.4221C33.7644 45.0861 34.3396 42.6816 34.016 41.3195L34.0112 41.3244C34.1867 39.6216 33.7997 37.6674 33.6967 36.219C33.5494 34.1456 34.2857 29.5546 34.5805 28.3684C34.8754 27.1833 37.0856 24.2207 38.559 22.2951C40.0319 20.3702 41.2107 19.0362 41.8002 18.7395C42.3896 18.4434 43.5683 18.1474 44.1576 18.2951C44.4671 18.3736 45.3416 19.1438 45.7651 20.2424C44.4674 20.2734 42.47 22.7517 42.1528 23.2053C41.8197 23.6822 40.8234 25.8208 41.2026 26.2971C41.5575 26.7412 41.7476 26.8123 43.2797 27.5168C42.3387 30.7647 42.0011 34.6687 41.8002 35.4777C41.5059 36.6636 42.242 41.8474 42.684 43.9211C43.126 45.9958 43.7162 57.1046 43.7162 59.0305C43.7158 60.9573 41.6535 69.6951 41.2114 71.177C40.7691 72.6585 39.1485 76.213 38.559 77.2502C37.9674 78.2896 31.047 86.7269 30.8969 87.6184C30.7475 88.5077 24.4153 91.9136 23.9711 92.507C23.5251 93.1005 17.9317 95.321 17.0463 95.7658C16.1621 96.2097 13.9521 95.914 13.0678 95.7658C12.1844 95.6174 11.5943 94.1378 11.0053 93.9885C10.4154 93.839 7.02981 89.5494 6.73186 89.3967C6.43589 89.2463 2.61032 83.4764 2.4594 82.8791C2.31201 82.2866 0.838435 79.1757 1.42717 76.8059C2.01643 74.4366 3.19554 73.8427 4.07952 72.9543C4.9635 72.066 6.87928 71.6211 7.46916 71.4729C8.05893 71.3245 9.38455 70.8794 9.82659 69.9914C10.1655 69.3096 10.2429 68.5397 10.2612 67.215C10.2692 67.2339 10.2785 67.2521 10.2865 67.2707C10.3289 67.3682 10.3717 67.4618 10.4135 67.552C10.4418 67.6133 10.4697 67.6729 10.4975 67.7307C10.5356 67.8094 10.5729 67.8847 10.6098 67.9563C10.6549 68.0442 10.6999 68.126 10.7426 68.2024C10.7635 68.2396 10.782 68.2765 10.8022 68.3108C10.8187 68.339 10.836 68.3656 10.852 68.3918C10.8827 68.4419 10.9123 68.4882 10.9408 68.5305C10.9548 68.5512 10.9665 68.5723 10.9799 68.591C11.4551 69.2571 12.4052 71.1605 13.5932 72.3498C14.7811 73.5391 16.6014 75.5256 17.3617 76.049C18.0747 76.5398 18.4828 76.8726 18.5307 76.7551C18.5341 76.7472 18.5365 76.737 18.5365 76.7248C18.5355 76.5338 17.4502 75.5531 17.2602 75.2678C17.0695 74.9817 15.7033 73.5333 15.1332 72.7248C14.563 71.9162 13.5468 70.7308 12.9291 69.7795C12.4658 69.0659 11.4676 67.4421 10.8774 66.3137C10.7297 66.0316 10.6077 65.7805 10.5258 65.5822C10.4985 65.5162 10.4753 65.4561 10.4574 65.4025C10.3759 65.1575 10.2911 64.8734 10.2084 64.5861C10.0842 63.3523 9.79386 62.8653 9.67913 62.2893C9.5318 61.5487 9.38478 60.0669 9.82659 58.882C10.2684 57.697 10.1207 55.475 10.268 53.8459C10.4152 52.2169 9.67899 51.4755 9.3842 50.883C9.08905 50.2902 7.02727 48.2167 6.29045 47.1799C5.5538 46.1431 3.63819 44.6619 2.4594 42.7365C1.2807 40.811 0.69049 38.7366 0.248461 36.5149C-0.193479 34.293 -0.0457612 29.9971 0.690844 23.7766C0.985726 23.3307 1.86975 19.4804 2.16448 18.2951C2.45934 17.1105 3.63771 16.2221 5.11077 17.4065C6.58371 18.5914 6.87923 21.1092 6.87932 21.9983C6.87932 22.8879 6.87916 27.0349 6.73186 28.2199C6.5844 29.4044 5.99529 29.4055 6.73186 32.8117C7.32129 35.5368 9.2364 37.5027 10.1205 38.1447C10.219 38.1416 10.4154 37.3972 10.4155 34.4416C10.4155 30.7394 11.889 29.2571 12.3315 28.3684C12.7741 27.4796 16.1616 25.2571 17.6352 23.924C19.1096 22.5906 27.9484 18.2961 29.4233 17.8508C29.7112 17.7638 30.0668 17.5964 30.4633 17.3811C30.6982 17.7072 31.0782 18.1413 31.1752 18.3996C31.3179 18.7801 31.794 19.1133 32.4115 19.3986C33.0288 19.6836 33.7412 19.2091 34.1215 19.1135C34.5017 19.0182 35.69 18.2097 36.1655 17.924C36.6403 17.6387 37.2109 17.0679 37.4487 16.7824C37.6863 16.4968 38.3981 15.4989 38.6362 15.1652C38.8661 14.8429 38.9613 14.3859 38.9672 14.0119ZM45.9262 20.7844C46.1183 21.6797 45.9681 22.7283 45.0414 23.7766C44.4205 24.4792 43.9215 25.542 43.519 26.7473C42.9771 26.5419 41.8387 25.9435 41.9155 25.6311C42.0108 25.2505 42.4854 24.3957 42.6283 24.1096C42.7712 23.8238 43.6113 22.6022 44.2914 21.9211C45.0035 21.2084 45.7163 20.9691 45.8598 20.8264C45.8732 20.8131 45.8967 20.7985 45.9262 20.7844ZM32.3705 2.74239C35.9057 2.29871 36.3487 5.40848 36.0541 6.44552C35.7596 7.48214 35.6108 8.6673 34.1381 10.2961C32.959 11.6 29.2273 15.6786 27.5082 17.5549C24.7982 18.266 17.7411 22.9815 14.5463 25.2541C15.0168 24.8972 19.4055 16.5184 20.2875 15.925C21.1738 15.3286 28.8347 3.18772 32.3705 2.74239ZM38.31 13.9436C38.3082 13.9539 38.3057 13.965 38.3041 13.9758C38.2086 14.6418 37.3058 15.6413 36.7358 16.3547C36.1655 17.0679 35.2616 17.4958 34.1215 18.2092C32.9815 18.9222 32.4111 18.447 32.0785 18.2092C31.7726 17.9902 31.5071 17.4892 31.2446 16.9289C32.7735 16.0022 34.6054 14.701 35.6117 14.2961C36.346 14.001 37.3733 13.8894 38.31 13.9436ZM19.4037 2.00118C19.8458 1.26036 20.5833 -0.368393 22.7924 0.0753999C25.0021 0.520047 25.445 2.74241 25.7397 4.0754C25.9753 5.14179 26.0346 6.69234 26.0346 7.33419L20.2875 14.592C19.8454 13.7398 18.6678 9.11237 18.6674 7.77852C18.6674 6.44556 18.9619 2.74295 19.4037 2.00118Z" fill="var(--fill-0, #FAF8F1)"/>
</svg>
