<svg preserveAspectRatio="none" width="100%" height="100%" overflow="visible" style="display: block;" viewBox="0 0 94 68" fill="none" xmlns="http://www.w3.org/2000/svg">
<g id="Frame 127">
<path id="Logo" d="M21.1882 33.2894C21.0731 32.8534 21.0447 32.458 21.1428 32.2102C21.4011 31.5593 22.5571 30.733 23.4819 30.8694C24.407 31.0069 25.9869 32.1512 27.0568 32.8707C27.9133 33.447 29.6778 35.0004 30.4528 35.7048C31.5261 37.1774 33.5214 38.0347 34.5402 38.8846C35.5595 39.7342 38.3856 40.0135 39.7261 39.8618C41.0663 39.7099 42.4594 39.4279 42.7568 38.8677C42.9935 38.4209 42.6113 38.2853 42.3898 38.2734C41.2466 38.8781 39.4112 39.1368 38.3435 39.1702C37.4899 39.1966 36.3461 38.8892 35.8805 38.7321C37.3365 38.0984 39.515 35.6437 39.6305 35.1625C39.7453 34.6832 39.2536 34.7882 39.1604 34.8281C39.0686 34.8691 38.5905 35.5065 38.4475 35.6769C38.3036 35.8483 36.0624 38.6515 34.8768 38.4146C33.9282 38.2232 32.1493 36.6196 31.378 35.8414C31.6385 35.9424 31.9644 35.695 32.8092 35.6504C33.6554 35.6046 35.0698 34.1282 35.64 33.4495C36.211 32.7696 37.9852 30.3827 38.9071 29.7661C39.2592 29.5308 39.6174 29.3401 39.9248 29.1948L39.9244 29.1939C40.6295 28.9979 42.1819 28.5725 42.7549 28.4371C43.473 28.2683 45.7629 28.4532 46.7899 28.5281C47.8168 28.6029 48.8162 28.5023 50.1511 28.6321C51.4868 28.7618 53.3705 28.4979 54.7822 27.9315C56.1929 27.3655 56.1835 27.3698 57.3047 26.5473C58.4252 25.7253 58.3914 25.7945 59.1081 25.2776C60.1891 24.4978 60.511 24.2507 60.8706 23.9234C61.2102 23.6142 61.507 23.2309 61.4666 23.1095C61.4529 23.0703 61.2061 23.1563 61.1044 23.234C60.9444 23.3569 60.7839 23.4808 60.5037 23.6453C60.2231 23.8101 60.2217 23.8109 59.3011 24.4674C58.3801 25.1242 58.1283 25.2949 57.4979 25.7008C57.129 25.9384 56.5982 26.5838 54.3301 27.5701C52.0616 28.5563 49.0899 27.9558 47.9192 28.0371C46.7497 28.1188 43.42 27.718 42.545 27.9544C41.6725 28.1915 40.0406 28.48 39.2901 29.0427L39.2939 29.0442C38.2009 29.3909 37.1031 30.1513 36.2408 30.6016C35.0067 31.2459 31.9903 32.0191 31.1818 32.1549C30.375 32.29 27.964 31.7222 26.387 31.3303C24.811 30.9387 23.6763 30.5698 23.336 30.2865C22.9964 30.0031 22.4991 29.3573 22.4324 28.9553C22.3975 28.7446 22.6364 28.001 23.1981 27.4468C23.5652 28.2359 25.6189 28.8015 25.9832 28.8757C26.3652 28.9531 27.9456 28.995 28.137 28.6346C28.3148 28.2978 28.3082 28.1619 28.3313 27.0316C30.5785 26.7428 33.0685 25.908 33.619 25.8156C34.4272 25.6789 37.4144 23.8421 38.5698 23.0166C39.7277 22.19 46.3923 18.8616 47.5758 18.347C48.7608 17.8325 54.6788 16.7669 55.7075 16.643C56.7362 16.5194 59.3527 16.5662 60.1475 16.6517C60.9468 16.7388 67.9764 18.7401 68.5658 18.5949C69.1529 18.4503 72.9367 21.4334 73.4206 21.5486C73.9041 21.664 76.7643 24.5123 77.2741 24.9377C77.7834 25.363 78.1925 26.8012 78.3379 27.3844C78.4828 27.9677 77.7314 28.7262 77.7979 29.1281C77.8623 29.5333 76.1319 32.761 76.1193 32.9823C76.1039 33.2076 73.5839 37.1006 73.2581 37.3517C72.9317 37.603 71.4154 39.3367 69.8037 39.6076C68.191 39.8779 67.5105 39.3119 66.7285 39.0055C65.9465 38.6992 65.1611 37.6397 64.9121 37.3162C64.6635 36.9934 64.0354 36.297 63.3718 36.2619C62.7079 36.2276 62.07 36.5053 60.7059 37.0983C59.3424 37.6912 59.0947 38.1211 58.6798 38.4095C58.2644 38.6978 57.3932 39.1839 56.5475 39.229C55.7016 39.2737 54.3755 39.9583 53.3353 40.303C52.2958 40.6474 52.0368 41.2981 51.7519 41.6378C51.4667 41.9775 50.7436 43.8 50.3037 44.5304C49.8639 45.2605 49.4658 46.8345 48.5984 48.0735C47.7308 49.3124 46.6132 50.2288 45.3668 51.0939C44.12 51.9592 41.4413 53.0166 37.4233 54.225C37.0711 54.1627 34.4697 54.6473 33.6619 54.7828C32.8552 54.9178 31.9945 54.4298 32.3284 53.2073C32.6627 51.985 34.1307 51.1309 34.6767 50.8935C35.2254 50.6549 37.7703 49.5484 38.5375 49.3224C39.304 49.0971 39.4635 49.4583 41.3585 48.0959C42.8746 47.0055 43.5704 45.3028 43.7284 44.5875C43.7019 44.5272 43.1933 44.6041 41.3746 45.3947C39.1011 46.3832 37.7962 45.8743 37.1316 45.8392C36.4674 45.8045 34.1956 44.3143 32.9825 43.7639C31.7689 43.213 26.768 38.925 26.0994 38.1364C25.9681 37.9814 25.7678 37.8065 25.5271 37.6185C25.6645 37.3869 25.8301 37.0389 25.9626 36.9106C26.1582 36.7213 26.2357 36.3404 26.2459 35.8844C26.256 35.4284 25.774 35.1164 25.6137 34.9081C25.4536 34.6997 24.6394 34.1855 24.3366 33.9693C24.0342 33.7533 23.5299 33.5546 23.291 33.4847C23.0514 33.4147 22.2487 33.2438 21.9805 33.1866C21.7226 33.1317 21.419 33.1941 21.1882 33.2894ZM23.4889 27.2021C23.9875 26.8453 24.6721 26.6578 25.5634 26.9476C26.1608 27.1416 26.9464 27.1628 27.7938 27.0885C27.8128 27.4755 27.7504 28.3361 27.5382 28.3742C27.2791 28.4173 26.6255 28.3538 26.4115 28.3423C26.1973 28.3307 25.2226 28.1403 24.6226 27.904C23.9944 27.6565 23.6568 27.2822 23.5306 27.2319C23.5191 27.2273 23.5051 27.216 23.4889 27.2021ZM16.0296 40.3594C14.8116 38.3039 16.603 37.2008 17.3192 37.1045C18.0347 37.0087 18.8036 36.7837 20.1977 37.2543C21.3146 37.6314 24.8175 38.8371 26.4297 39.3931C27.5913 40.8699 32.3745 43.9503 34.6251 45.3083C34.2732 45.1141 27.9614 44.6533 27.3594 44.2696C26.758 43.8841 17.2491 42.4153 16.0296 40.3594ZM21.3212 33.7129C21.3268 33.7115 21.3327 33.7101 21.3385 33.7085C21.773 33.5891 22.6286 33.8775 23.2194 34.0376C23.8102 34.1978 24.3144 34.6392 25.0576 35.1499C25.8009 35.6607 25.661 36.1382 25.6039 36.4063C25.5511 36.6532 25.314 36.9504 25.0398 37.2618C24.0623 36.5697 22.7784 35.7896 22.2611 35.2795C21.8831 34.9064 21.5383 34.304 21.3212 33.7129ZM19.0421 48.5322C18.4688 48.4582 17.2706 48.4395 16.9526 46.9617C16.6349 45.484 17.8822 44.6188 18.6223 44.0815C19.2144 43.6519 20.1506 43.2009 20.5449 43.0294L26.5408 44.6255C26.1355 45.125 23.6082 47.0851 22.7883 47.4423C21.9696 47.7982 19.6171 48.6052 19.0421 48.5322Z" fill="var(--fill-0, #FAF8F1)"/>
</g>
</svg>
