<svg width="32" height="32" viewBox="0 0 24 24" fill="none" xmlns="http://www.w3.org/2000/svg">
  <defs>
    <clipPath id="c">
      <rect width="24" height="24" rx="5"/>
    </clipPath>
  </defs>
  <g clip-path="url(#c)">
    <rect width="24" height="24" fill="#C87A5A"/>
    <path d="M15.0044 4.07778C14.8409 4.42737 14.968 4.82114 15.1424 5.16558C15.4592 5.79269 15.7153 6.54978 15.8843 7.36391C14.8939 6.14314 13.1638 4.33686 11.1056 3.26622C10.7084 3.05904 10.2275 3.03502 9.85186 3.27609C9.43214 3.54632 8.92524 4.01044 8.75852 4.73792C8.64303 5.2385 8.98456 5.69876 9.40113 6.02175C10.4356 6.8243 11.3168 7.87178 12.043 9.0192C10.2482 8.3582 8.37161 8.28013 6.64689 9.07968C5.72117 9.50905 5.37291 10.5887 5.89913 11.4329C5.98723 11.574 6.08061 11.7121 6.17909 11.8468C6.61229 12.4409 7.43106 12.5164 8.16534 12.3349C9.79569 11.9321 11.1398 12.4739 11.7977 13.7135C12.1599 14.396 11.8808 15.2183 11.2297 15.6648C10.9883 15.8308 10.7174 15.9861 10.4387 16.089C9.07264 16.4789 7.68316 15.5683 7.183 14.1348C6.96191 13.5025 6.44692 12.9149 5.75937 13.0307C5.57018 13.0628 5.39088 13.1036 5.22461 13.1495C4.3672 13.385 3.89625 14.2111 4.01938 15.0544C4.36046 17.3952 5.59804 19.0436 7.35601 20.0945C8.21747 20.6092 9.22228 20.8567 10.2352 20.9365C12.7117 21.1317 15.0462 20.8379 16.4761 20.5826C17.4302 20.4123 18.3177 19.9855 18.9064 19.2491C19.7822 18.154 20.9281 16.1778 20.9955 13.2855C21.0966 8.951 19.4609 5.14456 17.8432 3.39876C17.5843 3.11952 17.2095 2.9651 16.8213 3.00671C16.2312 3.06934 15.3693 3.29839 15.0044 4.07778Z" fill="#FAF8F1" stroke="#2A2A2A" stroke-width="1.2" stroke-linecap="round" stroke-linejoin="round"/>
  </g>
</svg>
