<svg width="83" height="36" viewBox="0 0 83 36" fill="none" xmlns="http://www.w3.org/2000/svg">
<path d="M34.7319 16.033C35.0549 15.8288 35.4832 15.925 35.6876 16.2479C35.8917 16.5709 35.7955 16.9992 35.4726 17.2035C31.3349 19.8193 27.6211 21.5934 22.7218 23.2958C12.5207 26.8402 5.15925 28.2417 2.5649 28.6107C5.8036 30.9012 8.30956 32.4374 9.11536 32.8214C9.58327 33.0342 10.1164 33.2579 11.2781 33.8338C11.6205 34.0036 11.7601 34.4186 11.5904 34.7611C11.4206 35.1035 11.0055 35.2444 10.6631 35.0747C9.51988 34.508 9.02175 34.2991 8.53141 34.0758L8.5206 34.0717C7.54726 33.6081 4.70138 31.847 1.18344 29.3285L1.15776 29.3109L0.902281 29.0838C0.677089 28.8749 0.473009 28.657 0.318336 28.4269C0.102644 28.106 -0.0430449 27.721 0.011495 27.2779C0.0636929 26.8543 0.287116 26.4851 0.573812 26.1574C0.861907 25.8281 1.26178 25.4887 1.75927 25.1206C3.73425 23.6595 7.64293 21.4636 9.81961 20.3139C10.3665 20.025 10.8154 19.796 11.1484 19.638C11.3139 19.5595 11.4606 19.4934 11.5809 19.4461C11.6403 19.4227 11.7027 19.4004 11.7634 19.3825C11.8094 19.369 11.9131 19.3399 12.0324 19.3393C12.0874 19.339 12.2265 19.343 12.3771 19.4217C12.5709 19.5232 12.7242 19.7206 12.7515 19.9719C12.7723 20.165 12.7095 20.311 12.6826 20.3666C12.6498 20.434 12.612 20.4858 12.5879 20.5166C12.5034 20.6249 12.3805 20.7299 12.2811 20.8113C12.0555 20.9959 11.6914 21.2632 11.1903 21.6115C9.18442 23.0058 5.02048 25.7081 3.08532 27.136C6.08412 26.6481 12.9747 25.2176 22.2676 21.9886C27.0725 20.3191 30.6888 18.5888 34.7319 16.033Z" fill="#919191"/>
<path d="M41.7669 0.692083C41.7669 0.309856 42.0767 0 42.4589 0C42.8409 0.000303855 43.151 0.310044 43.151 0.692083C43.151 1.086 43.1499 1.47914 43.1159 4.47015C43.0818 7.46191 43.0143 13.0453 42.9077 18.9147C42.9005 19.2965 42.5853 19.6 42.2035 19.5932C41.8213 19.5863 41.5166 19.2712 41.5236 18.889C41.63 13.0243 41.6977 7.44455 41.7317 4.45393C41.7658 1.46296 41.7669 1.07713 41.7669 0.692083Z" fill="#919191"/>
<path d="M42.8755 0.22792C44.4856 0.160299 46.6698 0.177188 48.3621 0.315782C49.7752 0.431592 50.5873 1.03094 51.7293 2.04058C52.2127 2.46801 52.5707 3.02922 52.8647 3.62345C53.159 4.21814 53.411 4.89335 53.6595 5.56993C54.2662 7.22104 54.3942 8.63913 54.4571 9.82922C54.5513 11.6137 54.285 12.9861 53.8447 14.0831C53.4056 15.1768 52.8066 15.9629 52.2943 16.5784C50.1287 19.1798 47.8232 19.4186 45.7898 19.8144L45.7452 19.8225L45.6992 19.8252C44.6389 19.8901 43.845 19.8757 43.3527 19.832C43.1608 19.8197 42.9823 19.8212 42.7741 19.8212C42.3921 19.8212 42.0824 19.511 42.082 19.1291C42.082 18.7469 42.3919 18.437 42.7741 18.437C42.8759 18.437 42.9821 18.4365 43.0931 18.4383L43.4419 18.4519L43.4608 18.4532C43.8558 18.4894 44.5693 18.5053 45.5776 18.4451C47.6499 18.0443 49.4383 17.8448 51.2305 15.6916C51.7071 15.119 52.2006 14.4636 52.5606 13.5667C52.9194 12.6727 53.1589 11.5037 53.0743 9.90221C53.0141 8.76343 52.8967 7.50626 52.3605 6.04709C52.109 5.36245 51.8802 4.75522 51.6239 4.23713C51.3673 3.71885 51.1044 3.33632 50.8115 3.07735C49.7173 2.11009 49.1932 1.77325 48.2486 1.69589C46.6241 1.56286 44.4987 1.54635 42.9336 1.61209C42.5519 1.62812 42.2295 1.33132 42.2131 0.949741C42.1971 0.567851 42.4936 0.243965 42.8755 0.22792Z" fill="#919191"/>
<path d="M59.9703 9.91778C60.347 9.85481 60.703 10.1089 60.7665 10.4855C60.8297 10.8625 60.5757 11.2198 60.1987 11.283C59.9998 11.3164 59.8995 11.3395 59.8081 11.3695C59.5842 11.4598 59.3738 11.5701 59.139 11.7723C58.8192 12.2256 58.4056 13.0757 58.1833 14.638C58.0789 15.3723 57.9903 16.0656 57.9184 16.6737C57.9624 17.3424 57.9552 17.8347 57.9184 18.2025C57.8864 18.5217 57.8331 18.7536 57.7751 18.9297C57.746 19.018 57.7171 19.0865 57.694 19.1379C57.6555 19.2234 57.6741 19.1803 57.6791 19.1663C57.6727 19.1842 57.6613 19.2141 57.644 19.2487C57.6315 19.2736 57.5924 19.3501 57.5169 19.4272C57.4528 19.4927 57.2089 19.7068 56.8478 19.6137C56.5423 19.5347 56.4208 19.294 56.399 19.2501C56.3382 19.1275 56.3279 19.0114 56.3274 19.0068C56.3234 18.972 56.3225 18.9404 56.322 18.9203C56.32 18.8444 56.3252 18.7436 56.3315 18.6418C56.3448 18.4241 56.3717 18.0961 56.4126 17.6902C56.4433 17.3843 56.4846 17.0301 56.5302 16.6399C56.4996 16.2283 56.4478 15.733 56.3625 15.1381C56.0776 13.1491 55.8208 11.6248 55.7097 10.8194C55.6576 10.4409 55.9219 10.0917 56.3004 10.0394C56.6788 9.98721 57.0278 10.2517 57.0803 10.6301C57.1384 11.0512 57.2246 11.5966 57.3331 12.2914C57.558 11.6858 57.8148 11.2328 58.0671 10.8924L58.1076 10.837L58.1576 10.791C58.5665 10.4206 58.9472 10.2235 59.3066 10.08L59.3215 10.0732L59.3377 10.0678C59.5398 9.99831 59.7257 9.95882 59.9703 9.91778Z" fill="#919191"/>
<path d="M64.7482 9.72461C65.6106 9.72665 66.42 9.88887 66.9677 10.0112C67.3403 10.0947 67.5751 10.4643 67.4922 10.8371C67.4751 10.9135 67.4416 10.982 67.4029 11.0452C67.4788 11.0755 67.5422 11.1138 67.5895 11.152C67.6879 11.2319 67.7434 11.3197 67.7679 11.3629C67.7959 11.4123 67.8143 11.4582 67.826 11.49C67.8673 11.6014 67.8906 11.7311 67.9058 11.8265C67.9716 12.2399 68.0279 13.0247 68.0761 13.8528C68.1251 14.6938 68.1691 15.6308 68.2072 16.3643C68.2264 16.7336 68.2438 17.0503 68.2599 17.2821C68.2647 17.3512 68.2692 17.4108 68.2735 17.4605C68.3471 17.5304 68.4331 17.5889 68.5316 17.6363C68.585 17.647 68.6711 17.6568 68.8263 17.6538C69.2083 17.6464 69.5243 17.9504 69.5319 18.3324C69.5393 18.7145 69.2355 19.0306 68.8533 19.038C68.6194 19.0425 68.3658 19.0327 68.1139 18.9596L68.0734 18.9488L68.0355 18.9326C67.6526 18.7692 67.3171 18.5146 67.0623 18.1769L67.0042 18.0985L66.969 18.0066C66.9369 17.9222 66.9237 17.8402 66.9204 17.8187C66.9142 17.7789 66.9099 17.735 66.9055 17.693C66.8966 17.608 66.8869 17.4999 66.8785 17.3781C66.8764 17.3486 66.8751 17.3179 66.8731 17.2862C66.7728 17.5982 66.6642 17.8754 66.5365 18.1094C66.3481 18.4544 66.0792 18.7909 65.6795 18.9528C65.252 19.1258 64.5616 19.3199 63.8371 19.1475C63.4815 19.0628 62.7748 18.8734 62.5124 18.1783C62.3223 17.6744 62.1027 16.5806 62.0339 15.4154C61.9658 14.2621 62.0333 12.8714 62.5381 11.8468C62.7271 11.4633 62.9816 10.9698 63.2951 10.5694C63.5863 10.1976 64.0696 9.72307 64.7482 9.72461ZM64.7265 11.1128C64.7126 11.1177 64.6875 11.1289 64.6535 11.152C64.5819 11.2008 64.491 11.2877 64.3845 11.4237C64.1682 11.7 63.9673 12.0756 63.779 12.4578C63.4404 13.1448 63.3516 14.2314 63.4167 15.3343C63.4801 16.4081 63.6792 17.3365 63.8019 17.6741C63.8066 17.6774 63.8134 17.6832 63.8236 17.689C63.8831 17.7227 63.9849 17.7587 64.1575 17.7998C64.4755 17.8756 64.8446 17.7972 65.1591 17.67C65.1342 17.6803 65.2026 17.663 65.3213 17.4457C65.4362 17.2351 65.5583 16.9089 65.6808 16.4346C65.9254 15.4877 66.1368 14.0848 66.3405 12.1537C66.3587 11.9815 66.3791 11.8353 66.4013 11.7198C66.4122 11.6629 66.4261 11.5982 66.4459 11.5359C66.4545 11.509 66.4794 11.4261 66.5365 11.3345C66.0292 11.2248 65.3939 11.1103 64.7441 11.1088C64.7427 11.1088 64.7375 11.1091 64.7265 11.1128Z" fill="#919191"/>
<path d="M75.3921 9.38284C75.6259 9.38079 75.7933 9.492 75.8828 9.57884C75.9661 9.65981 76.009 9.74334 76.0288 9.78565C76.1423 10.0289 76.3769 10.5929 76.3329 11.9349C76.2906 13.2229 76.2201 14.3152 76.1261 15.2088C76.1726 16.9537 76.2197 18.9437 76.2261 20.5657C76.3217 20.4646 76.4181 20.3665 76.51 20.2683C78.8004 17.8198 79.7135 16.5329 80.2556 15.7414C80.8023 14.9431 80.9436 14.6859 81.1856 14.1923C81.3537 13.8493 81.7684 13.7069 82.1115 13.8746C82.4546 14.0428 82.597 14.4574 82.4292 14.8006C82.1517 15.3666 81.9737 15.6816 81.3978 16.5226C80.817 17.3708 79.8596 18.7132 77.5197 21.2145C77.1167 21.6452 76.6704 22.1071 76.2018 22.5892C76.111 25.4873 75.7857 26.8326 75.5624 27.8677C74.7131 31.8041 73.7966 33.1915 72.8874 34.1748C71.9426 35.1964 70.6961 35.3461 69.2634 35.586C68.5181 35.7107 67.9826 35.4154 67.5832 35.1454C67.0109 34.7582 66.6872 34.1564 66.4923 33.722C66.3596 33.4261 66.3126 33.0748 66.2923 32.7528C66.2711 32.4174 66.2754 32.0363 66.2869 31.6457C66.2926 31.4514 66.3205 31.2424 66.4099 31.005C66.4952 30.7786 66.626 30.5543 66.8032 30.3089C67.1501 29.8286 67.7471 29.1693 68.747 28.1353C70.2113 26.6212 72.7024 24.1887 74.8298 22.0147C74.8351 21.7416 74.8437 21.4546 74.8446 21.1537C74.8472 20.3744 74.8344 19.4784 74.8176 18.5475C74.5071 18.6875 74.0616 18.8855 73.6011 18.9828C73.0914 19.0904 72.4016 19.1116 71.833 18.6381C71.461 18.3283 71.1596 17.8573 70.9422 17.3756C70.7198 16.8827 70.5564 16.3131 70.5002 15.7562C70.4345 15.105 70.3625 14.2099 70.3691 13.3731C70.3724 12.9552 70.3958 12.5356 70.4529 12.1606C70.5076 11.8016 70.604 11.4121 70.7962 11.1036C70.9268 10.894 71.2599 10.2443 71.9249 9.97354C72.774 9.62798 73.676 9.65368 73.9998 9.69374C74.3792 9.74067 74.6483 10.0862 74.6013 10.4656C74.5544 10.8449 74.2088 11.114 73.8295 11.0671C73.6445 11.0443 73.0021 11.0302 72.4467 11.2563C72.3857 11.2812 72.3185 11.3314 72.2358 11.4334C72.1441 11.5466 72.0785 11.6621 71.9709 11.8349C71.9292 11.9017 71.8668 12.0673 71.8208 12.3688C71.7774 12.6543 71.7563 13.002 71.7533 13.3839C71.7472 14.1469 71.8137 14.9854 71.8776 15.6183C71.9174 16.012 72.0363 16.4363 72.2034 16.8065C72.3754 17.1877 72.5708 17.4503 72.7197 17.5743C72.8088 17.6483 72.973 17.7004 73.3145 17.6284C73.6311 17.5615 73.9606 17.4156 74.281 17.2715C74.2962 17.2477 74.3281 17.1998 74.3648 17.1079C74.4493 16.8962 74.5361 16.5645 74.6162 16.0901C74.662 15.8185 74.7013 15.509 74.7392 15.1628C74.7104 14.0855 74.6836 13.1015 74.6676 12.3539C74.645 11.2985 74.6509 10.7054 74.6662 10.375C74.6736 10.2158 74.6848 10.0919 74.7014 9.99923C74.7049 9.97948 74.7232 9.85932 74.7906 9.7397C74.8112 9.70322 74.8558 9.63195 74.9325 9.56262C75.0104 9.49228 75.1666 9.38488 75.3921 9.38284ZM74.7379 24.0774C72.8733 25.9568 70.9136 27.8876 69.7432 29.0977C68.7344 30.1409 68.2051 30.731 67.9252 31.1186C67.7894 31.3066 67.732 31.4209 67.7048 31.493C67.6817 31.5544 67.6734 31.6054 67.671 31.6863C67.6598 32.0712 67.6569 32.3977 67.6738 32.6649C67.6915 32.9455 67.7283 33.0934 67.7562 33.1556C67.9275 33.5375 68.1203 33.8377 68.3591 33.9991C68.6608 34.2031 68.8192 34.2568 69.0349 34.2208C70.6244 33.9546 71.3135 33.838 71.8709 33.2354C72.561 32.4891 73.3937 31.3561 74.2093 27.5757C74.3782 26.7931 74.6063 25.836 74.7379 24.0774Z" fill="#919191"/>
</svg>
