<svg width="83" height="35" viewBox="0 0 83 35" fill="none" xmlns="http://www.w3.org/2000/svg">
<path d="M35.7028 15.0594C36.0348 14.8495 36.4752 14.9484 36.6852 15.2803C36.8951 15.6124 36.7962 16.0527 36.4642 16.2627C32.2109 18.9516 28.3932 20.7753 23.357 22.5252C12.8707 26.1688 5.30347 27.6094 2.6366 27.9888C5.96584 30.3432 8.54185 31.9224 9.37017 32.3171C9.85117 32.5359 10.3992 32.7659 11.5934 33.3579C11.9454 33.5324 12.0888 33.959 11.9144 34.3111C11.7399 34.6631 11.3132 34.8079 10.9612 34.6334C9.786 34.0509 9.27395 33.8362 8.7699 33.6066L8.75879 33.6024C7.75824 33.1259 4.83281 31.3155 1.21652 28.7266L1.19012 28.7085L0.927504 28.4751C0.696016 28.2603 0.486232 28.0363 0.327235 27.7998C0.105513 27.4699 -0.0442482 27.0742 0.0118163 26.6187C0.0654734 26.1832 0.295142 25.8037 0.589853 25.4668C0.886001 25.1284 1.29705 24.7794 1.80845 24.4011C3.83864 22.8991 7.85658 20.6419 10.0941 19.46C10.6563 19.163 11.1177 18.9276 11.46 18.7652C11.6301 18.6845 11.781 18.6165 11.9046 18.5679C11.9657 18.5439 12.0299 18.5209 12.0922 18.5026C12.1395 18.4887 12.2461 18.4588 12.3687 18.4581C12.4253 18.4578 12.5683 18.462 12.7231 18.5429C12.9223 18.6472 13.0799 18.8502 13.108 19.1084C13.1294 19.3069 13.0648 19.4571 13.0371 19.5142C13.0034 19.5835 12.9645 19.6367 12.9398 19.6684C12.8529 19.7797 12.7266 19.8876 12.6244 19.9713C12.3925 20.1611 12.0182 20.4358 11.5031 20.7939C9.44117 22.2272 5.16083 25.005 3.17156 26.4728C6.2542 25.9713 13.3374 24.5008 22.8901 21.1816C27.8293 19.4654 31.5467 17.6867 35.7028 15.0594Z" fill="#919191"/>
<path d="M44.1094 1.02784C44.1094 0.634924 44.4279 0.316406 44.8208 0.316406C45.2137 0.316406 45.5322 0.634924 45.5322 1.02784C45.5322 1.08324 45.5327 1.1386 45.5336 3.9472C45.5346 6.75617 45.5359 12.3174 45.5378 18.0466C45.5379 18.4395 45.2193 18.7593 44.8264 18.7594C44.4338 18.7593 44.1153 18.4406 44.1149 18.048C44.113 12.3188 44.1117 6.75775 44.1108 3.94859C44.1098 1.13966 44.1094 1.08356 44.1094 1.02784Z" fill="#919191"/>
<path d="M52.9844 17.3439C52.9844 17.0536 52.9844 16.7513 52.9941 16.5046V16.4852H52.9955C53.0203 16.1127 53.0637 14.5685 53.1011 10.6298H53.0997C53.1121 8.05912 53.1122 4.38649 53.1122 0.71143C53.1122 0.318717 53.431 0.000323439 53.8236 0C54.2166 0 54.5351 0.318518 54.5351 0.71143C54.5351 4.38505 54.535 8.06182 54.5226 10.6367V10.6395C54.4859 14.5018 54.4424 16.1061 54.4142 16.5588L54.4156 16.5602C54.4072 16.7729 54.4072 17.0442 54.4072 17.3439C54.4069 17.7365 54.0885 18.0553 53.6958 18.0553C53.3031 18.0553 52.9847 17.7365 52.9844 17.3439Z" fill="#919191"/>
<path d="M53.3608 8.33286C53.753 8.31414 54.0865 8.61602 54.1056 9.00816C54.1246 9.40061 53.8214 9.73392 53.4289 9.75294C53.0835 9.76968 52.7693 9.78528 52.5369 9.80574C52.3386 9.82319 52.0941 9.85731 50.9181 9.95581H50.9153C47.5657 10.2234 45.2341 10.3977 44.9849 10.3977C44.592 10.3977 44.2735 10.0791 44.2734 9.68624C44.2734 9.29333 44.592 8.97481 44.9849 8.97481C44.981 8.97481 44.9886 8.97468 45.0168 8.97342C45.0417 8.97231 45.0753 8.97034 45.1183 8.96786C45.2041 8.96291 45.3213 8.95558 45.4684 8.94563C45.7627 8.92572 46.1723 8.89605 46.6815 8.85809C47.6988 8.78224 49.112 8.67465 50.7986 8.53989V8.5385C52.027 8.43562 52.1109 8.41494 52.4118 8.38844C52.6786 8.36495 53.0257 8.3491 53.3608 8.33286Z" fill="#919191"/>
<path d="M59.3515 8.64884C59.4987 8.65389 59.7078 8.68106 59.899 8.72388C59.9962 8.74564 60.1076 8.77592 60.2144 8.81697C60.2779 8.84139 60.3928 8.8889 60.5062 8.97399L60.6174 9.07264L60.9189 9.39501C60.9206 9.39691 60.9218 9.39919 60.9231 9.40057C60.9285 9.40542 60.9384 9.4136 60.955 9.42836C61.2027 9.64874 61.3753 9.87089 61.465 10.1537C61.5031 10.2742 61.5195 10.3861 61.5289 10.4496C61.5395 10.5217 61.5449 10.5635 61.5567 10.6136C61.6329 10.9368 62.0923 12.6757 61.8999 14.3069C61.7045 15.9634 61.3397 16.8446 60.4742 17.3736C60.0651 17.6236 59.5585 17.7776 59 17.7071C58.7774 17.6789 58.52 17.6378 58.2788 17.5584C58.0407 17.4799 57.7542 17.344 57.5354 17.086C57.4401 16.9735 57.327 16.8476 57.2242 16.6302C57.1437 16.4598 57.066 16.225 56.9504 15.8757C56.6582 14.9917 56.4625 13.9813 56.4141 13.0355C56.3668 12.1108 56.4551 11.1512 56.8129 10.4316C57.2519 9.54872 57.8015 8.9597 58.1829 8.74194C58.4255 8.60355 58.7133 8.6269 58.9305 8.77251C59.0507 8.69127 59.1955 8.6435 59.3515 8.64884ZM58.8888 9.97861C58.8843 9.98167 58.8564 9.99911 58.8082 10.0425C58.7543 10.0911 58.6854 10.1619 58.6067 10.2551C58.4497 10.4414 58.2637 10.7101 58.0871 11.0652C57.891 11.4596 57.7929 12.1265 57.8356 12.9619C57.8772 13.7761 58.0474 14.661 58.3011 15.4283C58.4297 15.8172 58.4768 15.9508 58.5109 16.023C58.5224 16.0473 58.5156 16.0399 58.6179 16.1605C58.6276 16.1669 58.6576 16.1846 58.7235 16.2064C58.8322 16.2422 58.9809 16.2704 59.1778 16.2953C59.3592 16.3183 59.545 16.2735 59.7322 16.1591C60.0064 15.9915 60.3021 15.7053 60.4868 14.1402C60.6446 12.802 60.2596 11.3143 60.1713 10.9401C60.1432 10.8209 60.1301 10.7179 60.1213 10.6581C60.1164 10.6249 60.1121 10.6059 60.1102 10.5955C60.0992 10.5812 60.0712 10.5483 60.0088 10.4927C59.9828 10.4697 59.9535 10.4422 59.9282 10.4177C59.894 10.3846 59.8679 10.3564 59.8545 10.3413C59.8332 10.3173 59.7886 10.2669 59.6614 10.1328C59.6418 10.1272 59.6174 10.12 59.5877 10.1134C59.5326 10.1011 59.4732 10.0903 59.4182 10.0828C59.3613 10.0751 59.3204 10.0723 59.3029 10.0717C59.1639 10.0669 59.0363 10.0208 58.9291 9.94804C58.9152 9.95731 58.9035 9.9702 58.8888 9.97861Z" fill="#919191"/>
<path d="M67.48 7.67891C67.871 7.71575 68.1585 8.06324 68.122 8.45426C68.0864 8.83491 68.0503 9.13898 67.9511 9.64229L67.9483 9.6548C67.6996 10.8053 67.4573 11.9251 66.078 16.3773L66.0739 16.3939L66.0669 16.4092C65.9981 16.5982 65.9349 16.7584 65.8738 16.8775C65.8458 16.932 65.7982 17.0185 65.7279 17.0998C65.6963 17.1362 65.4518 17.423 65.0414 17.3582C64.6359 17.294 64.4915 16.9523 64.4745 16.9136C64.4341 16.8214 64.4172 16.7335 64.4092 16.6913C64.3923 16.6012 64.3802 16.487 64.3731 16.4231C64.3351 16.0831 64.2896 15.7034 64.2314 15.4435C63.8914 13.9281 63.0212 10.4884 62.632 9.10316C62.5259 8.72498 62.7471 8.33262 63.1253 8.22638C63.5033 8.1205 63.8958 8.34034 64.0021 8.71827C64.3135 9.82684 64.9207 12.2072 65.3346 13.922C66.1655 11.1519 66.3614 10.2614 66.5574 9.35466C66.6432 8.91708 66.6727 8.66327 66.7047 8.32087C66.7415 7.9299 67.089 7.64236 67.48 7.67891Z" fill="#919191"/>
<path d="M72.9176 7.14848C73.1887 7.10709 73.5441 7.08555 73.8749 7.19989C74.0512 7.2608 74.2372 7.36623 74.389 7.54032C74.5048 7.67312 74.5826 7.82555 74.628 7.98635L74.6628 8.14892L74.6836 8.34346C74.7155 8.81178 74.6187 9.36805 74.2334 9.93583C73.709 10.7086 73.2427 11.2805 72.8217 11.6824C72.409 12.0763 71.9879 12.3567 71.5503 12.455C71.4299 12.482 71.3109 12.4743 71.2001 12.4425C71.1792 12.8907 71.1602 13.3809 71.1445 13.9071C71.1275 14.4806 71.2075 14.8426 71.2974 15.0742C71.385 15.3 71.4956 15.4399 71.6045 15.5592C71.6548 15.6141 71.7524 15.672 72.013 15.6467C72.2545 15.6233 72.522 15.5334 72.7842 15.4341C73.2148 15.116 73.5282 14.7157 73.8082 14.2572C73.9337 14.0493 73.9879 13.952 74.0597 13.8056C74.2327 13.4533 74.659 13.308 75.0115 13.4805C75.3642 13.6534 75.5107 14.0796 75.3381 14.4323C75.2398 14.6328 75.1601 14.7697 75.024 14.995L75.0227 14.9992C74.6741 15.5697 74.2215 16.1715 73.5317 16.6527L73.4608 16.7014L73.3816 16.7319C73.0895 16.8456 72.6299 17.0161 72.1505 17.0626C71.6656 17.1097 71.0303 17.0396 70.554 16.5179C70.3772 16.3242 70.1455 16.0369 69.9718 15.5898C69.8004 15.1485 69.7 14.5908 69.7217 13.864C69.7584 12.6339 69.8083 11.57 69.8829 10.7612C69.92 10.358 69.9644 10.0032 70.0204 9.71629C70.0692 9.46619 70.1461 9.1502 70.3067 8.9201L70.5484 8.57133C70.6317 8.45241 70.7165 8.33447 70.7985 8.22952C70.9542 8.03037 71.1795 7.76883 71.4766 7.61952C71.7741 7.47004 72.3582 7.2339 72.9176 7.14848ZM73.1329 8.55466C72.7699 8.61008 72.3325 8.78207 72.1158 8.89092C72.1189 8.88976 72.0577 8.92996 71.9199 9.1063C71.7894 9.27317 71.6591 9.46884 71.4836 9.72046C71.4902 9.71304 71.458 9.77789 71.4169 9.98864C71.3741 10.208 71.334 10.5093 71.2988 10.8918C71.294 10.9434 71.2908 10.9963 71.2863 11.0502C71.3827 11.0141 71.5651 10.9159 71.8393 10.6542C72.1606 10.3475 72.563 9.86405 73.0565 9.13687C73.2091 8.91205 73.2578 8.71298 73.2635 8.54354C73.2254 8.54596 73.1817 8.54723 73.1329 8.55466Z" fill="#919191"/>
<path d="M81.5744 7.31079C81.9488 7.19214 82.3489 7.39922 82.4678 7.77349C82.5865 8.1479 82.3794 8.54808 82.0051 8.66695C81.794 8.73384 81.6704 8.77277 81.4048 8.87537C80.7849 9.12239 80.192 9.45492 79.6777 10.094C79.5927 10.3256 79.457 10.8474 79.2983 11.5752C79.129 12.3515 78.9484 13.2767 78.7884 14.1249C78.6255 14.9887 78.493 15.7204 78.4035 16.1967C78.3649 16.4022 78.3281 16.5962 78.3048 16.6789C78.3042 16.681 78.2883 16.742 78.2562 16.8081C78.2467 16.8276 78.2244 16.8714 78.1881 16.9206C78.1685 16.9473 78.0644 17.0917 77.8602 17.1666C77.7572 17.1956 77.5285 17.2045 77.4086 17.1791C77.304 17.138 77.1388 17.0271 77.0779 16.9651C76.9695 16.8402 76.9358 16.7116 76.9278 16.6816C76.9058 16.5987 76.9032 16.5292 76.9028 16.5191C76.902 16.4948 76.9024 16.4747 76.9028 16.4635C76.9036 16.4403 76.9058 16.419 76.907 16.4051C76.9117 16.3514 76.9218 16.2707 76.9348 16.1731C77.0022 15.6661 77.1614 14.3591 77.1766 12.9369C77.2085 9.93729 77.1877 8.31505 77.1877 8.12921C77.188 7.73677 77.5066 7.41806 77.8991 7.41778C78.2918 7.41778 78.6102 7.7366 78.6105 8.12921C78.6105 8.20188 78.6129 8.54507 78.6147 9.14911C79.3253 8.28927 80.1404 7.84844 80.8796 7.55395L80.8865 7.55117C81.1918 7.43311 81.3446 7.3836 81.5744 7.31079Z" fill="#919191"/>
</svg>
