<svg preserveAspectRatio="none" width="100%" height="100%" overflow="visible" style="display: block;" viewBox="0 0 62 62.9688" fill="none" xmlns="http://www.w3.org/2000/svg">
<g id="Certificate [Vectorized]">
<path id="Vector" d="M22.6379 7.29406C23.9845 7.87385 25.1137 8.93682 26.7548 8.32892C28.8463 7.55417 29.0457 3.66547 31.8958 4.79628C33.1087 5.27661 33.5924 7.31313 34.6111 8.02262C34.8199 8.16811 35.4393 8.3549 35.7001 8.41545C35.8774 8.61374 36.3244 8.62209 36.587 8.65261C37.6275 8.77364 38.2714 8.06942 39.1238 7.72909C40.9399 7.00392 41.8815 7.91884 42.0525 9.62457C42.0714 9.3452 42.0948 9.05954 42.0998 8.78012L42.1324 8.75741C42.2355 8.94396 42.3498 9.16423 42.4597 9.34302C42.8232 10.7922 42.012 12.0593 43.7556 13.1962C45.526 14.3506 48.3431 12.9655 49.0913 15.5084C49.6162 17.1856 47.0233 19.4154 47.7838 20.7679C48.3029 21.0711 48.0234 21.5447 48.5525 21.9755C50.0814 23.2199 52.3187 23.6879 51.3955 26.2262C51.3889 26.236 51.3824 26.2458 51.3758 26.2557C51.306 26.2833 51.2181 26.3181 51.112 26.3601C50.9905 26.5333 50.9508 26.8805 50.6967 26.8357L50.8731 26.5342L50.821 26.4837C50.7405 26.5161 50.756 26.4891 50.709 26.5592C50.4215 26.9877 49.9044 27.1906 49.4862 27.4651C49.4898 27.546 49.4934 27.6268 49.497 27.7077C48.8024 27.7556 48.3905 28.4645 48.0488 29.0183C47.8927 29.2716 47.9011 29.3333 47.9373 29.6193C47.8619 29.894 47.6715 30.553 47.6992 30.8002C47.8685 32.3089 49.4841 33.1823 49.0849 34.9628C48.4535 37.7384 45.4933 36.173 43.6766 37.3796C41.6464 38.728 43.4 41.7956 41.4656 43.1032C39.7336 44.274 38.4404 42.5121 36.9117 42.176C36.3992 42.0628 35.8654 42.0934 35.3691 42.2645C33.0584 43.0356 33.3571 46.124 30.8023 45.928C28.8184 45.7758 28.6494 43.1152 26.8801 42.346C24.4789 41.3022 23.4721 43.8405 21.2734 43.4235C18.5798 42.6319 20.102 39.9699 18.9534 38.0714C17.566 35.7783 14.5251 37.7619 13.1815 35.7737C12.1145 34.1948 13.6884 32.7214 14.1046 31.3212C14.2239 30.9198 14.1722 30.3425 14.0892 29.9263C13.7763 27.9226 11.6105 27.9138 10.63 26.4094C10.3775 26.0222 10.3621 25.651 10.3587 25.1878C10.3909 23.0765 13.2404 22.9138 13.9765 21.1996C14.2546 20.5518 14.228 19.6978 14.0049 19.0539C13.6298 17.9139 12.5167 16.7745 12.9172 15.4692C13.686 12.9626 16.4224 14.2902 18.0872 13.3181C19.2794 12.6219 19.5057 11.4792 19.4687 10.2289C19.4624 10.0135 19.484 9.53986 19.5346 9.34405C19.6955 9.21436 19.6034 9.23386 19.6813 9.10489C20.2296 8.19639 20.776 7.39432 21.9731 7.49568C22.1732 7.51257 22.466 7.37283 22.6379 7.29406Z" fill="var(--fill-0, #FAF8F1)"/>
<path id="Vector_2" d="M38.4932 47.4001C42.0423 48.1286 45.1943 46.4116 46.3618 42.8803C46.5253 42.3858 46.4406 41.4404 46.7754 41.0436C46.9876 40.9176 49.8487 40.291 49.842 40.2873C52.0044 41.4728 56.0348 46.8641 57.9747 47.8395C56.9645 47.9935 55.9703 47.9624 54.9512 47.961L51.4919 47.9595C50.5008 47.9601 48.3211 48.0328 47.4698 47.959L47.4742 54.1008C47.4748 54.7353 47.5716 57.9405 47.2513 58.2771L47.0919 58.3135C47.1222 58.1198 47.1371 58.0287 47.1371 57.8304C47.0175 57.6536 47.0848 57.7093 46.8717 57.629L46.5364 57.638C46.5855 57.4584 46.6028 57.4119 46.5934 57.218C46.5143 57.0389 46.2194 56.9115 46.0356 56.811C45.4485 56.3456 44.99 55.769 44.4638 55.2451C42.8456 53.6343 41.2143 52.0358 39.6062 50.4154C39.4713 50.2796 38.7289 49.6177 38.6705 49.4953C38.5255 49.1913 37.5664 48.4625 37.5539 48.4319C37.604 48.3117 37.6116 48.2949 37.6311 48.167C37.4144 47.9073 36.7647 47.7467 36.4686 47.6533L36.471 47.5252L36.5481 47.5703C36.9929 47.6761 38.0299 47.5026 38.4932 47.4001Z" fill="var(--fill-0, #FAF8F1)"/>
<path id="Vector_3" d="M5.32292 47.8616C5.38796 47.4114 5.46894 47.1546 5.67717 46.7488C6.25953 46.5131 7.50081 45.0499 7.95152 44.5454C8.38697 44.0317 8.74032 43.9174 9.2049 43.3936C10.0652 42.4235 11.3235 40.8327 12.6834 40.6044C12.7924 40.5861 14.1829 40.967 14.3504 41.0101L14.331 41.0653L14.0121 41.0501C14.4406 41.3504 14.6229 41.1636 14.8792 41.5804L14.9088 41.629L14.9904 41.3735C15.0773 41.5434 15.0632 41.9051 15.0683 42.1111C15.1728 41.9857 15.0759 41.5786 15.2332 41.3885C15.4145 41.6883 15.0733 41.8585 15.5015 42.2352C16.1316 46.0636 20.2384 48.6425 23.9834 47.196C24.0852 47.1566 24.1114 47.0899 24.239 47.0771C24.3792 47.4245 24.3063 47.3952 24.6777 47.5535L24.7056 47.5652C24.6638 47.7643 23.7925 48.3213 23.7974 48.5632C23.9424 48.5124 24.2048 48.4122 24.3473 48.4025C22.6643 50.1751 21.0238 51.7515 19.2917 53.4646C18.9615 53.4962 18.5475 54.0195 18.3315 54.2809L18.3099 54.3071L18.2497 54.2932L18.2405 54.075C17.9643 54.208 16.2179 56.0571 15.8905 56.384C15.7252 56.606 15.0584 57.0951 14.7932 57.313L14.7056 57.2576L14.6849 57.4634C14.6083 56.42 14.6494 55.0188 14.6485 53.9372C14.6511 51.9675 14.6396 49.9979 14.6138 48.0284C14.5023 47.9236 14.5548 47.9529 14.3629 47.952C13.827 48.0075 12.1852 47.9629 11.5981 47.9623C9.74388 47.9672 7.8897 47.9609 6.03556 47.9435C5.92011 47.8179 5.50183 47.8594 5.32292 47.8616Z" fill="var(--fill-0, #FAF8F1)"/>
<path id="Vector_4" d="M12.0095 40.2438C12.7489 40.3979 14.6132 40.7875 15.3114 41.1734C15.4794 41.2663 15.4875 41.995 15.5012 42.2352C15.0731 41.8585 15.4142 41.6883 15.233 41.3885C15.0756 41.5786 15.1725 41.9857 15.0681 42.1111C15.063 41.9051 15.0771 41.5434 14.9901 41.3735L14.9086 41.6291L14.879 41.5804C14.6227 41.1636 14.4404 41.3504 14.0118 41.0501L14.3307 41.0653L14.3501 41.0101C14.1827 40.967 12.7922 40.5861 12.6832 40.6044C11.3232 40.8327 10.065 42.4235 9.20464 43.3936C8.74007 43.9174 8.38672 44.0317 7.95126 44.5454C7.50055 45.0499 6.25928 46.5131 5.67692 46.7488C5.46868 47.1546 5.3877 47.4114 5.32267 47.8616C5.50157 47.8595 5.91985 47.8179 6.03531 47.9436C5.66358 47.9798 4.59726 47.9527 4.24856 47.8027L4.21841 47.6692C4.38065 47.4839 4.64194 47.6267 4.71221 47.5323C5.38252 46.6321 6.2152 45.9643 7.00225 45.1917C7.7227 44.3825 8.50266 43.6732 9.26949 42.9151C10.1561 42.0385 10.9844 40.9833 12.0095 40.2438Z" fill="var(--fill-0, #FAF8F1)"/>
<path id="Vector_5" d="M14.3629 47.952C14.5548 47.9529 14.5023 47.9236 14.6138 48.0283C14.6396 49.9979 14.6511 51.9675 14.6485 53.9372C14.6494 55.0188 14.6083 56.4199 14.6848 57.4634L14.7055 57.2576L14.7932 57.3129C15.0584 57.095 15.7252 56.606 15.8905 56.3839C16.041 56.467 16.0647 56.4897 16.1869 56.6113C15.8203 57.0461 15.1221 57.5386 14.9003 58.0003C14.8812 58.0401 14.8969 58.0822 14.8124 58.2256L14.6524 58.2532C14.1388 57.7764 14.648 48.3777 14.3629 47.952Z" fill="var(--fill-0, #FAF8F1)"/>
<path id="Vector_6" d="M35.7004 8.41557C37.9771 8.65237 37.7964 7.67865 39.6323 7.1657C40.9541 6.79643 42.3887 7.82173 42.4601 9.34315C42.3501 9.16435 42.2359 8.94408 42.1327 8.75754L42.1002 8.78024C42.0951 9.05967 42.0718 9.34533 42.0528 9.62469C41.8819 7.91897 40.9402 7.00404 39.1242 7.72921C38.2718 8.06954 37.6278 8.77377 36.5873 8.65273C36.3248 8.62222 35.8777 8.61386 35.7004 8.41557Z" fill="var(--fill-0, #FAF8F1)"/>
<path id="Vector_7" d="M15.8902 56.3837C16.2176 56.0568 17.964 54.2077 18.2402 54.0747L18.2494 54.2929L18.3096 54.3069L18.3312 54.2806C18.5472 54.0192 18.9612 53.496 19.2914 53.4643C18.7138 54.1914 18.0152 54.7824 17.3513 55.4271C16.9527 55.8143 16.583 56.2206 16.1866 56.6111C16.0644 56.4895 16.0407 56.4668 15.8902 56.3837Z" fill="var(--fill-0, #FAF8F1)"/>
<path id="Vector_8" d="M47.9372 29.6192C47.901 29.3332 47.8926 29.2715 48.0488 29.0182C48.3904 28.4643 48.8024 27.7555 49.497 27.7076C49.4933 27.6267 49.4897 27.5459 49.4862 27.465C49.9044 27.1905 50.4214 26.9875 50.7089 26.5591C50.756 26.489 50.7405 26.5159 50.8209 26.4836L50.8731 26.5341L50.6966 26.8356C50.9507 26.8804 50.9904 26.5331 51.1119 26.36C51.2181 26.318 51.306 26.2832 51.3757 26.2556C50.5126 28.0607 48.8714 27.5041 47.9372 29.6192Z" fill="var(--fill-0, #FAF8F1)"/>
<path id="Vector_9" d="M24.2389 47.0768C24.492 46.9675 25.0653 46.6838 25.3112 46.7522C25.5087 47.0103 25.3043 47.4332 25.1962 47.7221C24.9148 47.9484 24.6313 48.1801 24.3472 48.4022C24.2047 48.412 23.9423 48.5122 23.7973 48.563C23.7923 48.321 24.6637 47.764 24.7055 47.5649L24.6775 47.5532C24.3061 47.3949 24.379 47.4242 24.2389 47.0768Z" fill="var(--fill-0, #FAF8F1)"/>
<path id="Vector_10" d="M19.5349 9.34381C19.7052 7.65795 21.0143 6.76924 22.6382 7.29382C22.4663 7.37259 22.1735 7.51233 21.9734 7.49544C20.7763 7.39408 20.2299 8.19615 19.6816 9.10465C19.6037 9.23362 19.6958 9.21412 19.5349 9.34381Z" fill="var(--fill-0, #FAF8F1)"/>
<path id="Vector_11" d="M36.5482 47.5701C36.752 47.5517 36.6742 47.5825 36.8391 47.4424L36.8168 47.5012L36.8606 47.4544L36.8406 47.3906L36.519 47.2272C36.4296 47.0744 36.3268 46.9559 36.482 46.8165C36.969 46.7075 38.0024 47.1957 38.4933 47.4C38.03 47.5025 36.9929 47.676 36.5482 47.5701Z" fill="var(--fill-0, #FAF8F1)"/>
<path id="Vector_12" d="M46.0359 56.8109C46.2197 56.9115 46.5146 57.0388 46.5938 57.2179C46.6031 57.4118 46.5858 57.4583 46.5367 57.638C46.3532 57.5029 46.3067 57.4799 46.0989 57.3896C45.9605 57.1666 46.0224 57.1192 46.0359 56.8109Z" fill="var(--fill-0, #FAF8F1)"/>
<path id="Vector_13" d="M46.8719 57.6288C47.085 57.7091 47.0176 57.6534 47.1373 57.8302C47.1373 58.0285 47.1224 58.1197 47.0921 58.3133C46.8809 58.1305 46.7076 58.1778 46.5795 57.9749C46.6518 57.7585 46.6674 57.7985 46.8719 57.6288Z" fill="var(--fill-0, #FAF8F1)"/>
</g>
</svg>
