<svg preserveAspectRatio="none" width="100%" height="100%" overflow="visible" style="display: block;" viewBox="0 0 62 62" fill="none" xmlns="http://www.w3.org/2000/svg">
<g id="Magnetic Card [Vectorized]">
<path id="Vector" d="M4.1707 22.785C8.08651 22.7349 12.0729 22.7706 15.9929 22.7703L37.32 22.7698L50.5123 22.7701C52.8474 22.7703 55.5936 22.6991 57.8852 22.8093L57.8835 40.4005L57.8887 45.0103C57.8913 47.3777 58.2059 48.6042 56.569 50.4878C55.099 52.1552 52.3056 51.7451 50.2636 51.7395L44.2269 51.7352L24.775 51.7362L13.4898 51.7388C11.4984 51.7393 9.36066 51.8338 7.39458 51.5805C5.92761 51.3914 4.23895 49.6061 4.17427 48.1207C4.09079 46.2033 4.12685 44.2157 4.12675 42.2826L4.1265 31.3348L4.12462 25.4149C4.12456 24.9739 4.09561 23.127 4.1707 22.785ZM10.2185 28.8657C12.0342 28.9634 13.8102 28.9366 15.6274 28.9359L23.0263 28.9323C24.2047 28.9316 25.7158 28.8889 26.872 28.9425C26.8992 28.2773 26.915 27.6117 26.9193 26.9459C25.5057 26.8366 23.7031 26.8833 22.255 26.8831L13.972 26.8852C12.8634 26.886 11.412 26.9411 10.3488 26.9068C10.2514 27.124 10.2584 28.4665 10.2185 28.8657Z" fill="var(--fill-0, #FAF8F1)"/>
<path id="Vector_2" d="M4.24017 13.6762C4.24904 13.6093 4.26055 13.5428 4.27469 13.4769C4.66163 11.6795 6.46059 10.268 8.26537 10.3048C9.45524 10.3291 10.6866 10.2847 11.8816 10.2847H18.4551L38.6839 10.2853L49.2244 10.2854C50.3219 10.2848 53.6562 10.2184 54.5249 10.4C54.6795 10.6723 55.2069 10.8752 55.5194 10.9513L55.233 11.0505C55.3573 11.2093 55.5628 11.0993 55.72 11.0368L55.7783 11.0614L55.7435 11.3038C56.4718 12.0492 57.3932 12.939 57.4658 14.0308C57.5044 14.611 57.5296 15.5083 57.381 16.0683C57.0739 16.365 49.1131 16.2579 47.9476 16.2579L32.4993 16.2575L14.7518 16.2566C11.6022 16.2565 8.4484 16.2669 5.29897 16.2466C5.09789 16.2453 4.93633 16.2401 4.73679 16.2084C4.63326 16.0955 4.63424 16.0826 4.58571 15.9334C4.4271 16.091 4.64119 16.0428 4.37719 16.1995L4.29249 16.1656C4.2299 15.3397 4.30354 14.2692 4.24017 13.6762Z" fill="var(--fill-0, #FAF8F1)"/>
<path id="Vector_3" d="M54.5249 10.3999C57.718 11.2 58.1105 13.7689 57.855 16.6351L22.9144 16.6226L11.2042 16.6232C8.92421 16.6234 6.50857 16.6661 4.24334 16.5884C4.00623 16.2749 4.12361 14.0836 4.24014 13.6761C4.3035 14.2691 4.22987 15.3395 4.29245 16.1654L4.37715 16.1994C4.64115 16.0427 4.42706 16.0909 4.58567 15.9333C4.6342 16.0824 4.63322 16.0954 4.73675 16.2083C4.9363 16.24 5.09785 16.2451 5.29893 16.2465C8.44837 16.2667 11.6022 16.2563 14.7518 16.2564L32.4992 16.2574L47.9476 16.2577C49.1131 16.2578 57.0739 16.3649 57.381 16.0681C57.5296 15.5082 57.5044 14.6109 57.4657 14.0306C57.3931 12.9389 56.4717 12.0491 55.7435 11.3037L55.7783 11.0612L55.7199 11.0367C55.5627 11.0992 55.3573 11.2091 55.233 11.0504L55.5194 10.9512C55.2069 10.8751 54.6794 10.6722 54.5249 10.3999Z" fill="var(--fill-0, #FAF8F1)"/>
</g>
</svg>
