<svg preserveAspectRatio="none" width="100%" height="100%" overflow="visible" style="display: block;" viewBox="0 0 62 62" fill="none" xmlns="http://www.w3.org/2000/svg">
<g id="Control Panel [Vectorized]">
<path id="Vector" d="M7.91434 10.3129C8.83386 10.2534 9.95949 10.2826 10.8991 10.2829L15.9223 10.2852L31.325 10.2872L46.3535 10.2875L51.0366 10.2823C51.9578 10.2802 52.8686 10.2882 53.7907 10.3009C55.5346 10.325 57.4886 11.7895 57.7626 13.5426C57.9849 14.9642 57.8883 16.7268 57.8871 18.2096L57.8823 26.6536L57.8855 40.497L57.886 44.9431C57.886 46.4205 58.073 48.4052 57.2184 49.6985C56.3859 50.9583 55.5589 51.412 54.1056 51.7159C52.9997 51.7685 51.7841 51.7409 50.6698 51.739L45.3425 51.7374L28.3845 51.7369L15.1981 51.7385L11.0036 51.7388C9.41463 51.7388 7.28084 51.9292 5.94369 50.9626C5.30912 50.5039 4.32567 49.3217 4.24362 48.5395C4.04684 46.6632 4.12664 44.6779 4.12645 42.7832L4.12651 31.9101L4.12785 20.0843L4.12208 16.4886C4.11767 14.8625 3.95374 13.3799 4.98914 12.0096C5.84553 10.8761 6.54628 10.5266 7.91434 10.3129ZM20.7975 35.0949C26.4796 35.0206 31.0273 30.3573 30.9588 24.6751C30.8903 18.993 26.2315 14.4405 20.5493 14.5032C14.8589 14.5661 10.2985 19.233 10.3671 24.9234C10.4357 30.6137 15.1073 35.1693 20.7975 35.0949ZM26.8261 41.3234C25.5979 41.3788 24.2919 41.3299 23.0548 41.3255L16.4631 41.3212C14.9797 41.3217 13.4508 41.2556 11.9857 41.4706C10.6842 41.6616 10.2626 42.8007 10.3326 43.9747C10.334 43.9986 10.3357 44.0225 10.3376 44.0464C10.8164 44.737 11.2014 45.2241 12.1103 45.3608C12.8619 45.4737 13.8598 45.4265 14.6371 45.4243L22.4085 45.4196C23.5843 45.419 25.7593 45.3544 26.8236 45.5205C27.2374 47.0429 28.0945 47.6101 29.6368 47.4885C30.2179 47.0081 30.8239 46.6015 30.9192 45.7859C31.091 44.3148 31.0348 42.7548 30.9671 41.2748C30.9249 40.3526 30.3745 39.9897 29.7666 39.4223C29.4085 39.3344 29.1205 39.2635 28.7432 39.3115C27.6696 39.5713 27.1109 40.2659 26.8261 41.3234ZM39.4818 26.9152C37.6738 27.1997 37.1321 27.8859 37.2094 29.6962C37.6784 30.0758 38.0858 30.6243 38.6646 30.8347C39.5538 31.1581 45.9802 31.0197 47.3192 30.9978C49.1238 30.8983 49.9613 29.5865 49.3722 27.8942C48.3288 26.9854 47.7877 26.8639 46.4097 26.8851C44.1183 26.9204 41.7669 26.8068 39.4818 26.9152ZM39.5438 18.6782C37.841 18.908 37.1199 19.3816 37.1975 21.2509C37.7992 22.0364 38.2217 22.6455 39.2823 22.7328C40.1804 22.8068 41.1793 22.7753 42.0843 22.7739L47.2384 22.765C48.1626 22.7229 48.4855 22.5852 49.149 21.9003C49.5142 21.5234 49.5696 21.1371 49.5647 20.6375C49.546 18.7459 47.8288 18.6203 46.3397 18.6517C44.103 18.6987 41.7795 18.565 39.5438 18.6782ZM35.1633 41.2653C35.0286 42.4252 35.1583 44.1303 35.0841 45.3908C39.73 45.5212 44.4374 45.3589 49.0884 45.422C49.7496 45.4309 50.4905 45.3398 50.9893 44.868C51.0204 44.8386 51.0508 44.8085 51.0804 44.7776C51.7599 44.1157 51.7732 43.4763 51.5823 42.5848C50.9563 41.8008 50.5652 41.4411 49.5217 41.3744C48.2158 41.2908 46.8339 41.3221 45.5225 41.3218L38.1341 41.323C37.5572 41.3233 35.6042 41.3981 35.1633 41.2653Z" fill="var(--fill-0, #FAF8F1)"/>
<path id="Vector_2" d="M19.8683 18.6672C20.1476 18.6463 20.4526 18.6896 20.7334 18.7189C20.5844 20.6841 20.7905 22.7673 20.6333 24.7469C22.1754 24.8563 23.7203 24.7999 25.2645 24.8148C25.737 24.8194 26.2758 24.7926 26.7352 24.9023C26.7638 24.9327 26.8466 25.0051 26.8448 25.0425C26.6963 28.087 24.4332 30.436 21.5462 30.9629C19.9309 31.1319 18.2066 30.7041 16.923 29.7089C14.1454 27.5554 13.5703 23.544 15.9581 20.879C17.216 19.475 17.9471 18.8921 19.8683 18.6672Z" fill="var(--fill-0, #FAF8F1)"/>
</g>
</svg>
