<svg preserveAspectRatio="none" width="100%" height="100%" overflow="visible" style="display: block;" viewBox="0 0 62 62" fill="none" xmlns="http://www.w3.org/2000/svg">
<g id="Microphone [Vectorized]">
<path id="Vector" d="M28.9351 40.9188C27.537 40.8595 25.4432 38.4913 25.1602 37.1129C24.671 34.7298 24.8224 32.1638 24.8236 29.7296L24.8235 21.5527L24.8235 14.3016C24.8227 12.1757 24.5899 9.06487 25.6542 7.2131C26.4843 5.78871 27.8476 4.75365 29.4426 4.33682C31.1186 3.88693 32.6661 4.17907 34.1403 5.00933C36.7201 6.4622 37.2107 8.82601 37.1538 11.5894C37.13 12.7399 37.1554 13.936 37.1555 15.0781L37.1541 23.4934L37.1575 31.0255C37.1579 32.932 37.3733 36.5271 36.4319 38.1323C36.0897 38.3244 35.8657 38.7043 35.5909 38.9814C35.4293 39.1443 35.3903 38.9757 35.2398 39.0611C34.9087 39.3135 34.8154 39.5652 34.4497 39.8039C34.2929 39.9063 33.3664 40.4441 33.3159 40.5251L33.4545 40.5908C32.931 40.9507 30.9752 41.0472 30.3083 41.0108C29.8432 40.9854 29.3734 40.8775 28.9351 40.9188Z" fill="var(--fill-0, #FAF8F1)"/>
<path id="Vector_2" d="M27.3242 44.7614C27.6303 44.8342 28.0661 45.0142 28.427 45.1013C29.5967 45.3835 30.8925 45.4864 32.0882 45.3701C33.9786 45.1861 35.2944 44.6073 36.8402 43.5829C38.3275 42.5972 38.3678 42.4826 39.379 41.0965C41.3763 38.3585 41.2952 36.0564 41.294 32.89L41.2902 28.3316C41.2911 27.474 41.2179 26.1432 41.8287 25.4948C42.8427 24.4186 44.152 24.7775 45.1271 25.608C45.5757 26.717 45.4329 29.612 45.4158 30.9023C45.3459 33.0378 45.5828 35.5584 45.2262 37.6459C44.3349 42.8646 40.4411 47.2371 35.455 48.9343C34.8551 49.1385 33.7108 49.2408 33.2253 49.595C32.9356 50.0145 33.0551 52.8699 32.9843 53.6902C34.4979 53.8605 36.1046 53.7208 37.6318 53.7634C39.1105 53.8045 40.1417 53.5044 41.1367 54.8254C41.1426 55.0668 41.2048 55.3111 41.2202 55.5537C41.4045 58.4586 38.4324 57.8963 36.5705 57.8852L32.1614 57.8822L26.1811 57.883C25.1188 57.8852 24.0639 57.8885 22.9937 57.8893C22.0939 57.89 21.3637 57.6077 20.9413 56.7478C20.5572 56.1641 20.8199 54.3033 21.5878 54.0527C23.3398 53.4811 25.7401 53.8943 27.5977 53.7772C28.012 53.7511 28.6012 53.8368 28.932 53.6849C28.989 53.3909 28.9735 49.8241 28.8378 49.6042C28.3297 49.1993 26.9654 49.0591 26.3642 48.8459C21.6916 47.2081 17.8113 43.0496 16.8617 38.14C16.283 35.1476 16.6916 31.6743 16.5557 28.6228C16.508 27.5522 16.5697 26.603 16.8909 25.5744C18.158 24.4944 19.1027 24.6483 20.3528 25.6358C20.4506 25.8958 20.6175 26.2486 20.587 26.5116C20.524 27.2331 20.5691 28.5138 20.5725 29.269L20.5762 33.9609C20.5763 35.0778 20.5235 36.1691 20.485 37.2814C20.478 37.4846 20.8535 38.5471 20.9893 38.6592C21.0088 38.5668 21.0282 38.477 21.0437 38.3836C21.0588 38.6109 21.0941 39.3415 21.2018 39.5473C21.7477 40.5915 22.6332 41.7638 23.3826 42.6528C23.6922 43.0202 24.7484 43.4122 25.075 43.9022C25.2378 44.1464 25.6252 44.2312 25.8955 44.2512C26.4714 44.7367 26.4571 44.8266 27.3242 44.7614Z" fill="var(--fill-0, #FAF8F1)"/>
<path id="Vector_3" d="M20.5873 26.5115C20.7514 27.3366 20.6907 28.9715 20.6893 29.8697L20.6881 33.4158C20.691 37.9766 21.4478 41.0805 25.4473 43.7524C26.0403 44.1464 26.6688 44.4842 27.3245 44.7612C26.4574 44.8265 26.4717 44.7365 25.8957 44.251C25.6255 44.2311 25.2381 44.1463 25.0753 43.902C24.7487 43.412 23.6925 43.02 23.3829 42.6526C22.6335 41.7636 21.748 40.5913 21.2021 39.5472C21.0944 39.3413 21.0591 38.6108 21.044 38.3835C21.0285 38.4768 21.0091 38.5666 20.9896 38.6591C20.8538 38.5469 20.4783 37.4844 20.4853 37.2813C20.5238 36.169 20.5766 35.0777 20.5765 33.9608L20.5728 29.2689C20.5694 28.5137 20.5243 27.2329 20.5873 26.5115Z" fill="var(--fill-0, #FAF8F1)"/>
<path id="Vector_4" d="M28.9353 40.9187C29.3736 40.8774 29.8434 40.9853 30.3085 41.0107C30.9754 41.0471 32.9312 40.9506 33.4547 40.5907L33.3161 40.525C33.3666 40.444 34.2931 39.9062 34.4499 39.8038C34.8156 39.5651 34.9089 39.3134 35.2399 39.061C35.3905 38.9756 35.4295 39.1442 35.5911 38.9813C35.8659 38.7042 36.0898 38.3243 36.432 38.1322C36.0614 39.0342 34.4984 40.4205 33.5741 40.7953C32.1915 41.3561 30.3276 41.4759 28.9353 40.9187Z" fill="var(--fill-0, #FAF8F1)"/>
</g>
</svg>
