<svg preserveAspectRatio="none" width="100%" height="100%" overflow="visible" style="display: block;" viewBox="0 0 62 62" fill="none" xmlns="http://www.w3.org/2000/svg">
<g id="Quiz [Vectorized]" clip-path="url(#clip0_0_11)">
<path id="Vector" d="M10.4799 7.25962C10.9966 5.441 12.4346 4.1973 14.3455 4.14706C15.5377 4.11572 16.7184 4.12019 17.9104 4.11999L24.361 4.11952L32.1056 4.12063C33.4544 4.12089 35.5092 4.05015 36.7885 4.24335C37.339 4.32648 39.8907 6.99927 40.3701 7.47662C42.0654 9.14227 43.7456 10.8232 45.4106 12.5191L48.8379 15.9424C49.802 16.9003 50.8465 17.8091 51.5877 18.9385C51.8109 22.1443 51.6243 25.5837 51.6862 28.8161C51.7036 29.7215 51.6563 30.6919 51.6962 31.5878C52.2571 31.9369 52.9287 32.5396 53.214 33.1512C53.4779 33.1616 53.9176 33.1865 54.1682 33.1497C57.0408 32.7279 58.654 35.1895 60.47 36.9082C61.0201 37.4289 61.4749 38.4747 61.9998 38.8811V41.383C61.5984 41.6951 61.3386 42.1542 61.2769 42.6588C61.2006 43.2974 61.6208 44.3287 61.9998 44.8113V50.2328L61.9828 50.2579C61.5106 50.9756 61.2091 52.1071 60.8978 52.9334C59.7 56.1134 57.3821 58.521 54.4729 60.2491C54.0358 60.5104 53.5754 60.7305 53.0975 60.9067C52.4803 61.1319 50.5432 61.6726 50.1642 62.0002H44.8483C44.3133 61.4129 42.2939 61.1047 41.4483 60.6784C40.0751 59.9856 38.7594 59.1566 37.697 58.04C36.733 57.8018 33.6363 57.8843 32.4383 57.8864L19.9848 57.8815L16.4053 57.8883C15.6536 57.892 14.7578 57.9402 14.0238 57.8458C12.3793 57.6344 10.8918 56.4015 10.4779 54.8C10.6532 52.9408 10.5577 49.6486 10.5566 47.7033L10.5567 35.0459L10.5572 17.5089C10.5573 14.2808 10.6525 10.4414 10.4799 7.25962ZM45.286 37.5493C44.4419 37.6286 42.8988 38.3914 42.1468 38.8147C39.0336 40.5671 36.8577 44.8125 37.2037 48.3386C37.4829 51.1698 38.8845 53.7712 41.0954 55.5615C42.8913 57.0256 46.3438 58.2356 48.6244 57.8349C51.9543 57.2198 54.846 55.6135 56.4893 52.5753C58.0268 49.7327 58.427 46.6292 57.0228 43.6569C55.6267 40.7016 56.7773 41.7949 57.6832 40.254C57.382 39.6759 56.2717 38.5544 55.7724 38.1279C55.5605 37.9226 55.1978 37.6327 54.963 37.4355L54.7914 37.3237C54.386 37.4114 53.8225 38.6966 53.6179 38.7158C52.3701 38.8328 51.1942 37.6617 49.7214 37.5584C49.6369 36.6962 49.6576 36.0274 49.6501 35.1667C48.1879 35.0913 46.8484 35.1639 45.4242 35.1336C45.4265 35.9633 45.4427 36.7288 45.286 37.5493ZM24.8785 29.6426C25.6572 30.5256 25.8284 30.9677 27.2028 30.9872C29.2603 31.0164 31.392 31.0316 33.4453 31.0091C36.6715 30.9737 39.9666 31.0595 43.1833 30.9964C45.0967 30.8983 45.6257 29.6501 45.2918 27.9431C44.8687 27.5681 44.4234 27.1204 43.8561 27.0143C42.9668 26.848 41.91 26.8841 41.0037 26.8837L37.5806 26.8829C34.2601 26.8826 30.3876 26.7857 27.1049 26.9102C25.3551 27.1979 24.7288 27.781 24.8785 29.6426ZM47.4009 20.6619C47.6641 20.1952 46.1027 18.9532 45.7227 18.6669C44.8859 18.0364 43.023 15.6916 42.3689 15.2238C41.1748 14.3696 36.0229 8.51452 35.232 8.27227C35.0584 9.01046 35.1109 10.3418 35.1139 11.1558L35.1241 14.5219C35.1268 15.8864 35.0978 17.2482 35.127 18.6117C35.146 19.5038 35.9755 20.4666 36.8429 20.5946C38.0631 20.7748 39.4474 20.7054 40.6898 20.7045C42.927 20.7203 45.1642 20.7061 47.4009 20.6619ZM36.5676 38.2415C37.32 37.3107 38.0021 36.6231 39.0285 35.9738C39.2776 35.8163 39.5827 35.6858 39.6764 35.3879C39.5157 35.0683 38.1649 35.1071 37.7814 35.12C34.2882 35.237 30.569 34.9469 27.0986 35.1478C26.4816 35.2439 25.6186 35.3628 25.3154 35.9463C23.3492 39.7287 28.0068 39.2749 30.1737 39.2349C32.1205 39.1989 33.5345 39.3168 35.4174 39.202C35.9197 39.1693 36.2652 38.6005 36.5676 38.2415ZM31.5042 47.5652C32.0306 47.5636 32.5792 47.5539 33.1036 47.5669C33.1359 45.5757 33.3531 45.2205 33.7257 43.4124C32.0358 43.3136 28.9016 43.2953 27.2087 43.3818C25.6839 43.6286 24.6427 44.1344 24.8933 45.9869C25.1898 48.1802 29.8833 47.5609 31.5042 47.5652ZM16.7558 38.2422C17.3936 38.9385 17.916 39.1944 18.8787 39.1943C21.7716 38.5308 20.8954 35.0859 18.4099 35.192C16.8005 35.6389 16.3081 36.6106 16.7558 38.2422ZM18.4104 26.9547C16.872 27.4436 16.3831 28.0741 16.6613 29.7439C17.3828 30.5613 17.6488 30.8891 18.7781 30.9586C18.8282 30.9617 18.8785 30.9631 18.9287 30.9627C19.5361 30.8229 20.0838 30.3809 20.4208 29.8601C20.7751 29.3125 20.7045 28.6355 20.578 28.0265C19.8826 27.3781 19.4143 26.9524 18.4104 26.9547ZM19.0428 47.4791C20.1326 47.2513 20.8381 46.1913 20.6273 45.098C20.4166 44.0048 19.3677 43.2828 18.2713 43.4765C17.5467 43.6045 16.9473 44.113 16.703 44.8071C16.4587 45.5012 16.6075 46.2731 17.0922 46.8267C17.577 47.3803 18.3226 47.6296 19.0428 47.4791Z" fill="var(--fill-0, #FAF8F1)"/>
<path id="Vector_2" d="M45.6409 46.7005C46.114 46.4781 47.2294 45.2976 47.5938 44.8526C48.5361 43.702 49.7255 42.1885 51.4273 42.9535C52.0631 43.2394 52.2099 43.5443 52.4461 44.1603C52.6774 45.6351 50.9396 46.8588 50.089 47.8446C49.9247 48.035 49.6895 48.267 49.5046 48.4418C49.1711 48.4613 48.2205 48.9114 48.1072 49.2262L48.1627 49.3384C47.7664 49.3643 46.9903 49.4252 46.6346 49.2511C46.5058 49.188 46.4082 48.7678 46.3654 48.6167C46.3138 48.5772 46.235 48.5095 46.1671 48.5084C45.6639 48.4997 45.6293 47.908 45.6278 47.538C45.6268 47.285 45.6099 47.0439 45.6008 46.7979L45.6409 46.7005Z" fill="var(--fill-0, #FAF8F1)"/>
<path id="Vector_3" d="M45.6405 46.7006C45.9936 45.9239 46.719 45.4046 47.3034 44.7653C48.5684 43.3816 50.0401 41.1488 52.0668 42.9009C52.4338 43.2182 52.4453 43.7071 52.4457 44.1604C52.2095 43.5444 52.0627 43.2394 51.4269 42.9536C49.7251 42.1885 48.5357 43.702 47.5934 44.8526C47.229 45.2976 46.1136 46.4782 45.6405 46.7006Z" fill="var(--fill-0, #DBD8CE)"/>
<path id="Vector_4" d="M45.6007 46.7975C45.6098 47.0435 45.6266 47.2846 45.6277 47.5377C45.6292 47.9077 45.6638 48.4994 46.167 48.508C46.2348 48.5092 46.3137 48.5768 46.3653 48.6164C46.4081 48.7674 46.5057 49.1877 46.6345 49.2508C46.9902 49.4248 47.7663 49.3639 48.1626 49.3381L48.1071 49.2259C48.2204 48.911 49.171 48.4609 49.5045 48.4415C47.7094 50.794 44.7821 49.5228 45.6007 46.7975Z" fill="var(--fill-0, #FAF8F1)"/>
<path id="Vector_5" d="M54.9633 37.4355C55.1981 37.6326 55.5608 37.9225 55.7727 38.1279C55.4784 38.0976 55.272 38.2781 55.0006 38.0931C54.8986 37.7595 55.0111 37.7571 54.9633 37.4355Z" fill="var(--fill-0, black)" fill-opacity="0.0588235"/>
<path id="Vector_6" d="M10.4802 7.25948C10.6529 10.4412 10.5576 14.2807 10.5575 17.5088L10.557 35.0458L10.5569 47.7032C10.558 49.6484 10.6535 52.9406 10.4782 54.7999C10.3769 54.4629 10.2966 53.3324 10.2955 52.9797C10.2844 49.4846 10.2884 45.9795 10.2882 42.485L10.2895 21.8262L10.2892 12.855C10.2886 11.5795 10.2071 8.35077 10.4802 7.25948Z" fill="var(--fill-0, #FAF8F1)"/>
</g>
<defs>
<clipPath id="clip0_0_11">
<rect width="62" height="62" fill="white"/>
</clipPath>
</defs>
</svg>
