<svg preserveAspectRatio="none" width="100%" height="100%" overflow="visible" style="display: block;" viewBox="0 0 15.5 15.5" fill="none" xmlns="http://www.w3.org/2000/svg">
<g id="Group">
<path id="Vector" d="M4 6.00025C4 5.46975 4.21074 4.96098 4.58586 4.58586C4.96098 4.21074 5.46975 4 6.00025 4H12.4998C12.7624 4 13.0225 4.05174 13.2652 4.15226C13.5079 4.25278 13.7284 4.40012 13.9141 4.58586C14.0999 4.7716 14.2472 4.99211 14.3477 5.23479C14.4483 5.47747 14.5 5.73757 14.5 6.00025V12.4998C14.5 12.7624 14.4483 13.0225 14.3477 13.2652C14.2472 13.5079 14.0999 13.7284 13.9141 13.9141C13.7284 14.0999 13.5079 14.2472 13.2652 14.3477C13.0225 14.4483 12.7624 14.5 12.4998 14.5H6.00025C5.73757 14.5 5.47747 14.4483 5.23479 14.3477C4.99211 14.2472 4.7716 14.0999 4.58586 13.9141C4.40012 13.7284 4.25278 13.5079 4.15226 13.2652C4.05174 13.0225 4 12.7624 4 12.4998V6.00025Z" stroke="var(--stroke-0, #F7F7F2)" stroke-width="2" stroke-linecap="round" stroke-linejoin="round"/>
<path id="Vector_2" d="M1.759 11.3027C1.52875 11.1719 1.33724 10.9825 1.20393 10.7537C1.07061 10.5249 1.00026 10.2648 1 10V2.5C1 1.675 1.675 1 2.5 1H10C10.5625 1 10.8685 1.28875 11.125 1.75" stroke="var(--stroke-0, #F7F7F2)" stroke-width="2" stroke-linecap="round" stroke-linejoin="round"/>
</g>
</svg>
