<svg preserveAspectRatio="none" width="100%" height="100%" overflow="visible" style="display: block;" viewBox="0 0 60 60" fill="none" xmlns="http://www.w3.org/2000/svg">
<g id="Npc Face [Vectorized]">
<path id="Vector" d="M32.1736 18.7118C32.2093 17.8267 32.0705 17.6518 32.7268 16.962C33.4976 16.1519 34.0323 16.5948 34.6127 16.2973L34.6855 16.3393C34.7179 16.8347 35.0248 16.8174 35.3626 17.1587C35.7686 17.569 35.6975 18.4731 35.9639 18.8445C36.1605 18.6188 35.9732 18.3602 36.0878 18.2516C36.1993 18.5609 36.1778 18.7108 36.2262 19.0197C36.2455 19.1426 36.367 19.3196 36.4058 19.4576C36.6151 20.203 36.4224 20.2474 36.9143 20.8895L36.9554 20.85L36.8865 20.8792L36.987 20.7815C37.2309 21.4058 37.0727 22.1334 37.7525 22.4622C37.9243 22.8047 38.139 23.5854 38.2896 23.9907L39.8957 28.4126C41.1583 31.8463 42.4466 35.3619 43.6795 38.8122C44.0781 39.9275 43.8345 40.7085 43.3153 41.7176C41.6341 42.1524 40.116 41.8541 38.4104 41.6866L32.2682 41.0613C30.0492 40.8538 27.8517 40.6766 25.6433 40.3549C24.0355 40.1207 22.1163 40.3901 20.6763 39.5798C20.0456 39.226 19.9459 38.2237 20.049 37.5883C20.2529 37.4939 20.3213 37.2352 20.4827 37.0879C21.0066 36.6137 21.691 36.0663 22.4444 36.1216C22.7675 36.1453 23.4042 36.1991 23.7121 36.3256C23.875 36.3926 23.8361 36.3907 24.0273 36.4115L24.084 36.4173L23.6884 36.5096C24.0394 36.6003 25.1859 36.3697 25.5652 36.5353C25.4199 36.6122 24.8575 36.6195 24.6586 36.6306C26.0462 36.9875 27.7687 36.6304 29.2178 36.8069C29.8068 36.8787 30.2367 37.1032 30.841 37.1186L30.8703 37.1191C30.7447 37.1621 30.4358 37.1604 30.2893 37.1652C31.406 37.4744 32.8566 37.5295 34.0058 37.4607C34.782 37.4143 35.5849 37.5184 36.3538 37.4383C36.958 37.4386 38.0506 37.6171 38.8197 37.64C38.6363 36.4221 38.2019 35.7979 37.8933 34.6984C37.2868 32.538 36.3604 30.5564 35.6516 28.4372C34.8614 26.0744 33.8652 23.7955 33.0816 21.4339C32.7842 20.5196 32.4131 19.64 32.1736 18.7118Z" fill="var(--fill-0, #CBC8BF)"/>
<path id="Vector_2" d="M19.773 47.0737C21.5084 46.9234 24.7575 47.2459 26.6258 47.3198L37.0338 47.7988C38.5936 47.8748 41.779 47.8727 43.1326 48.3008C43.1701 48.3126 43.2071 48.3227 43.2424 48.3408C43.553 48.4996 43.8205 49.0505 43.901 49.3769C44.1317 50.3123 43.7247 51.0262 43.2621 51.7986C42.9332 51.903 42.7165 51.9727 42.3734 52.0351C41.8388 52.0587 41.2813 52.0545 40.7467 52.039C35.2256 51.8765 29.754 51.3159 24.2202 51.2828C22.6128 51.2731 20.6185 51.1605 19.0591 50.7218C18.8505 50.6631 18.5553 50.4401 18.3728 50.3048C17.852 49.0665 18.009 48.5196 18.6491 47.3958C19.0559 47.1774 19.3308 47.1288 19.773 47.0737Z" fill="var(--fill-0, #CBC8BF)"/>
<path id="Vector_3" d="M42.0937 12.9483C42.6513 12.4921 42.2984 12.4658 42.6255 12.1524C42.6761 12.3358 42.4509 12.4062 42.5806 12.5009C42.6449 12.3887 42.9596 11.7879 43.0117 11.7242C43.6066 10.9958 44.3608 10.6153 45.2522 10.3689C46.2674 10.0883 46.9432 10.3876 47.8315 10.8314C48.1787 11.0048 48.1595 11.1881 48.3142 11.3142C48.7364 11.658 49.0466 11.8318 49.1953 12.4185C49.2413 12.5996 49.2024 12.5454 49.3337 12.6492L49.4026 12.5817C49.4036 12.4406 49.4044 12.3265 49.4181 12.1844C49.7253 12.4229 49.4209 13.1259 49.9714 13.3669C50.2272 14.9906 49.4719 16.607 48.0623 17.4525C46.6527 18.298 44.8711 18.2033 43.559 17.2133C42.247 16.2231 41.6673 14.5358 42.0937 12.9483Z" fill="var(--fill-0, #CBC8BF)"/>
<path id="Vector_4" d="M13.0194 17.9141C12.9059 17.5818 12.7 17.6753 12.4005 17.4825L12.5016 17.3843L12.4996 17.2957C12.3406 17.1368 12.156 17.117 11.9734 17.0335C11.5632 16.846 10.8477 15.8536 10.6693 15.4714L10.6509 15.4313L10.5359 15.4561L10.4636 15.5934C10.3594 15.4528 10.4854 15.0813 10.4376 15.0244C9.88618 14.3685 10.2004 13.3073 10.5266 12.6101L10.5183 12.6624C10.8452 12.0151 11.1897 11.578 11.7353 11.0999C12.0202 10.8502 12.1785 10.892 12.438 10.7676C13.248 10.3794 13.8891 10.1834 14.8036 10.2476C14.9029 10.7222 15.8351 10.7254 16.0367 10.9129C17.3451 12.1298 17.8913 13.0122 17.9537 14.7605C17.7455 15.8485 17.0987 16.8028 16.1653 17.3994C15.232 17.9959 14.0942 18.1821 13.0194 17.9141Z" fill="var(--fill-0, #CBC8BF)"/>
<path id="Vector_5" d="M13.0191 17.9145C10.8869 17.383 9.57339 15.2418 10.0656 13.1003C10.5578 10.9588 12.6744 9.60602 14.8246 10.0587C16.9748 10.5113 18.3663 12.6027 17.9533 14.7609C17.8909 13.0127 17.3447 12.1302 16.0363 10.9133C15.8347 10.7258 14.9025 10.7226 14.8032 10.248C13.8888 10.1838 13.2476 10.3798 12.4376 10.768C12.1782 10.8924 12.0198 10.8507 11.7349 11.1003C11.1893 11.5784 10.8448 12.0155 10.5179 12.6629L10.5262 12.6105C10.2 13.3077 9.88581 14.3689 10.4372 15.0248C10.485 15.0817 10.3591 15.4533 10.4633 15.5938L10.5356 15.4565L10.6505 15.4317L10.6689 15.4718C10.8473 15.854 11.5628 16.8464 11.973 17.0339C12.1556 17.1174 12.3402 17.1372 12.4993 17.2961L12.5013 17.3847L12.4001 17.483C12.6997 17.6757 12.9056 17.5822 13.0191 17.9145Z" fill="var(--fill-0, #CBC8BF)"/>
<path id="Vector_6" d="M20.0487 37.5879C20.2484 36.5207 20.8915 35.883 21.9703 35.954C23.9091 36.0817 25.899 36.3705 27.8328 36.5705L34.3421 37.2571C34.9781 37.3278 35.758 37.3467 36.3534 37.438C35.5846 37.518 34.7817 37.4139 34.0054 37.4603C32.8562 37.5291 31.4057 37.474 30.289 37.1649C30.4355 37.16 30.7444 37.1617 30.8699 37.1187L30.8406 37.1182C30.2363 37.1028 29.8065 36.8783 29.2174 36.8066C27.7683 36.6301 26.0458 36.9871 24.6582 36.6302C24.8572 36.6192 25.4196 36.6118 25.5649 36.535C25.1856 36.3693 24.039 36.5999 23.6881 36.5092L24.0836 36.4169L24.0269 36.4111C23.8358 36.3904 23.8747 36.3922 23.7118 36.3253C23.4039 36.1988 22.7671 36.1449 22.444 36.1212C21.6906 36.0659 21.0062 36.6134 20.4823 37.0876C20.3209 37.2348 20.2525 37.4935 20.0487 37.5879Z" fill="var(--fill-0, #CBC8BF)"/>
<path id="Vector_7" d="M42.0937 12.9482C42.5876 11.1093 44.3006 9.86652 46.202 9.96759C48.1034 10.0686 49.675 11.4859 49.9714 13.3668C49.4209 13.1258 49.7253 12.4228 49.4181 12.1843C49.4043 12.3263 49.4036 12.4404 49.4026 12.5816L49.3337 12.649C49.2024 12.5453 49.2413 12.5995 49.1953 12.4183C49.0466 11.8316 48.7364 11.6578 48.3142 11.314C48.1595 11.1879 48.1787 11.0047 47.8315 10.8313C46.9432 10.3875 46.2674 10.0881 45.2522 10.3688C44.3608 10.6152 43.6066 10.9957 43.0116 11.7241C42.9596 11.7878 42.6448 12.3886 42.5806 12.5008C42.4508 12.406 42.6761 12.3357 42.6255 12.1523C42.2984 12.4657 42.6513 12.4919 42.0937 12.9482Z" fill="var(--fill-0, #CBC8BF)"/>
<path id="Vector_8" d="M33.3789 16.0404C34.0153 16.0122 34.7285 15.9669 35.2404 16.4226C36.081 17.1709 37.3359 21.2254 37.7525 22.462C37.0727 22.1332 37.2309 21.4056 36.9871 20.7813L36.8865 20.8789L36.9555 20.8498L36.9143 20.8893C36.4224 20.2472 36.6151 20.2028 36.4058 19.4573C36.3671 19.3194 36.2455 19.1424 36.2262 19.0195C36.1778 18.7106 36.1994 18.5607 36.0879 18.2514C35.9733 18.3599 36.1605 18.6186 35.964 18.8443C35.6975 18.4729 35.7687 17.5688 35.3626 17.1585C35.0248 16.8172 34.718 16.8345 34.6856 16.3391L34.6128 16.2971C34.0323 16.5946 33.4977 16.1517 32.7269 16.9618C32.0706 17.6515 32.2093 17.8264 32.1736 18.7116C31.9457 17.8034 31.9629 17.64 32.3402 16.7532C32.7122 16.474 32.9836 16.2843 33.3789 16.0404Z" fill="var(--fill-0, #CBC8BF)"/>
</g>
</svg>
