<svg preserveAspectRatio="none" width="100%" height="100%" overflow="visible" style="display: block;" viewBox="0 0 60 60" fill="none" xmlns="http://www.w3.org/2000/svg">
<g id="Unhappy [Vectorized]">
<path id="Vector" d="M6.57384 30.5839C6.50247 29.9982 6.60642 29.1372 6.61363 28.5298C6.62734 27.3691 7.02208 26.2526 7.24263 25.1198C7.9055 21.6863 9.26874 18.3469 11.2321 15.4542C11.8983 14.4725 12.0948 14.0177 12.9183 13.0906C15.3033 10.4053 18.2107 8.18187 21.671 7.08991C22.1716 6.93194 22.6644 6.71931 23.1755 6.5887C24.1217 6.39827 25.1026 6.20573 26.05 6.0347C27.448 6.15898 28.9609 5.92724 30.3786 6.28812C30.5714 6.33722 30.6801 6.30575 30.8948 6.38749L30.8977 6.45405L30.5628 6.46109C30.7203 6.65497 32.9972 6.91091 33.4107 6.98913L33.4932 6.94396C33.6851 7.52052 34.8647 7.55439 35.3624 7.65915C35.4113 7.66946 35.4603 7.97808 35.5021 7.99999C35.7253 8.11694 36.0222 8.0447 36.2467 8.15374C36.3804 8.24702 36.4765 8.56325 36.6095 8.6539C37.301 9.12441 37.974 9.75862 38.5483 10.3695C38.9287 10.7742 39.2752 11.6045 39.7306 11.9671C39.9716 12.1589 41.048 12.0343 41.3887 12.0093C44.5882 12.249 47.6758 13.8671 49.6579 16.3198C50.8567 17.8031 52.3575 20.5101 52.7195 22.3635C52.68 23.0856 52.9543 23.9949 53.1123 24.7042C53.1467 24.8591 53.0536 25.3951 53.0731 25.5858C53.1141 25.9875 53.2256 26.4455 53.3077 26.8416L53.3183 26.7483C53.3901 26.8801 53.3865 26.9024 53.4072 27.0545C53.5152 27.4975 53.4317 28.0325 53.5985 28.6158C53.6416 28.1206 53.8436 27.1869 53.5895 26.8262L53.6815 26.7268L53.8322 26.7861C54.1425 27.5484 54.0065 40.0918 53.9994 41.7351C53.9968 42.3329 53.7765 43.3256 53.5095 43.9298C52.7331 45.6871 51.7269 46.788 49.9409 47.5398C49.4798 47.7339 48.6096 47.9758 48.1242 48.0171C47.2173 48.0943 46.1982 48.0727 45.2835 48.0744C43.5646 48.0853 41.8456 48.0754 40.127 48.0449C39.9634 47.8678 39.9414 47.8412 39.9694 47.6162C40.094 47.437 40.3258 47.3632 40.5301 47.2746C40.8971 46.5064 41.6718 46.486 41.7474 45.477C42.3348 43.9691 43.8559 42.8589 43.8739 40.774C43.9276 36.2769 44.1594 31.6792 43.5335 27.2196C43.3253 25.736 42.2104 20.0747 40.1084 20.2008C39.7194 20.3884 39.2219 21.7065 38.748 22.2389L38.7157 22.2747L38.5351 22.2834C38.426 22.404 38.0952 22.7608 37.9565 22.8215L38.1526 22.5993C37.3057 23.3358 36.233 24.6806 35.0988 25.1257C34.5354 25.3468 34.6417 25.0878 34.2328 25.693C34.1637 25.7953 32.9142 25.9414 32.7485 26.0899C32.1837 27.1774 28.8662 26.5808 28.3233 26.9204L28.6032 26.9817C28.1864 26.9934 27.8443 26.9953 27.4279 26.978L27.4031 27.0306C27.6255 27.0634 27.816 27.0813 28.0402 27.0992C27.8536 27.1047 26.2212 27.2325 26.1767 27.1916L26.3283 27.141C26.0935 27.025 24.2482 27.1836 23.8418 27.198L23.8211 27.2509C24.1088 27.3933 24.5934 27.2695 24.8116 27.389C24.4505 27.7238 23.346 27.4284 22.9817 27.5648C22.2907 27.8234 21.632 27.8374 20.9825 27.9981C21.0669 28.1017 21.2086 28.1097 21.3627 28.1534C21.0165 28.2939 19.7788 28.4054 19.4276 28.7801C19.4518 28.8524 19.4505 28.8612 19.4942 28.9228C19.4143 28.9968 19.4534 28.9903 19.3708 28.9954C18.7782 29.032 18.3396 29.6037 17.9539 29.9952C17.7469 30.2053 17.8891 30.4556 17.6938 30.6459C17.4371 30.6309 17.5173 30.6002 17.318 30.7279L17.2645 30.8549L17.2829 30.8832C17.3362 30.9666 17.3594 30.9894 17.3706 31.0893C17.0694 31.7416 16.7236 31.6687 16.796 32.5327C14.3389 41.1668 17.8171 47.6899 25.2788 51.9121C25.5993 52.0935 27.3306 52.823 27.4151 52.9616L27.4414 53.0037C27.4654 53.0428 27.4855 53.0782 27.5076 53.1182C27.8663 53.234 28.6421 53.4045 28.8977 53.5459C28.9157 53.6676 28.8007 53.8492 28.7402 53.9702C28.1567 54.1299 25.3528 54.0965 24.564 54.0956L17.0781 54.0802L12.9312 54.0859C11.3723 54.101 9.44423 54.3016 8.04155 53.4889C6.88163 52.8168 6.22907 51.8634 6.04105 50.5325C6.21366 48.927 5.94771 45.9867 6.03642 44.4683C6.1355 42.7714 5.86157 31.8672 6.28849 31.2657C6.37251 31.386 6.33659 31.3747 6.44857 31.4065C6.65089 31.1879 6.59458 30.8562 6.57384 30.5839Z" fill="var(--fill-0, #CBC8BF)"/>
<path id="Vector_2" d="M29.3262 41.9739C31.5006 41.7478 33.732 42.8208 34.9879 44.6067C35.7162 45.6423 35.8325 46.8301 36.006 48.0461C34.3244 48.0986 32.5358 48.0695 30.8454 48.0667C28.5612 48.0851 26.2769 48.0786 23.9928 48.0473C24.1409 46.6374 24.4011 45.2394 25.3444 44.1219C26.2504 43.0487 27.9194 42.0986 29.3262 41.9739Z" fill="var(--fill-0, #CBC8BF)"/>
<path id="Vector_3" d="M34.827 32.1249C35.6459 32.3816 37.467 34.3547 38.0798 35.0256C38.6295 35.6015 39.3097 36.131 39.7263 36.8174C40.0548 37.3586 39.1243 37.6737 38.7738 37.8427C37.9048 38.1319 36.6401 37.9961 35.8266 37.5762C35.0328 37.1673 34.4342 36.4596 34.1626 35.6091C33.6821 34.1241 34.2005 33.3427 34.827 32.1249Z" fill="var(--fill-0, #CBC8BF)"/>
<path id="Vector_4" d="M24.7819 32.1442C25.6283 32.178 26.1193 34.1915 25.967 34.8882C25.4686 37.1685 23.9899 38.2906 21.6406 37.9065C20.6865 37.6302 19.6133 37.3953 20.6468 36.2838C21.4782 35.3897 22.4201 34.5224 23.2527 33.6166C23.7352 33.0917 24.3291 32.7411 24.7819 32.1442Z" fill="var(--fill-0, #CBC8BF)"/>
<path id="Vector_5" d="M16.7959 32.5328C16.7235 31.6688 17.0694 31.7417 17.3706 31.0894C17.3594 30.9895 17.3362 30.9667 17.2828 30.8833L17.2644 30.855L17.3179 30.728C17.5173 30.6004 17.437 30.631 17.6937 30.646C17.889 30.4557 17.7468 30.2054 17.9539 29.9953C18.3396 29.6039 18.7781 29.0322 19.3708 28.9955C19.4534 28.9904 19.4142 28.9969 19.4941 28.9229C19.4504 28.8614 19.4517 28.8525 19.4275 28.7803C19.7788 28.4055 21.0164 28.2941 21.3627 28.1535C21.2086 28.1098 21.0669 28.1018 20.9824 27.9982C21.632 27.8375 22.2907 27.8236 22.9817 27.5649C23.3459 27.4286 24.4504 27.7239 24.8115 27.3891C24.5933 27.2697 24.1088 27.3935 23.8211 27.251L23.8417 27.1981C24.2482 27.1837 26.0935 27.0252 26.3282 27.1412L26.1766 27.1917C26.2211 27.2326 27.8536 27.1048 28.0402 27.0993C27.8159 27.0814 27.6255 27.0635 27.403 27.0307L27.4279 26.9782C27.8442 26.9954 28.1863 26.9936 28.6032 26.9818L28.3232 26.9206C28.8661 26.581 32.1836 27.1776 32.7484 26.09C32.9141 25.9415 34.1636 25.7954 34.2327 25.6931C34.6416 25.0879 34.5353 25.3469 35.0987 25.1258C36.2329 24.6808 37.3056 23.3359 38.1525 22.5994L37.9565 22.8216C38.0952 22.7609 38.426 22.4042 38.535 22.2835L38.7157 22.2748C37.5177 24.3553 34.6686 26.1261 32.3946 26.6913C31.0876 26.9657 29.7012 27.1398 28.3772 27.3121C26.9723 27.495 25.4402 27.4473 24.0501 27.7198C20.7433 28.3678 18.1687 29.1629 16.7959 32.5328Z" fill="var(--fill-0, #CBC8BF)"/>
<path id="Vector_6" d="M26.05 6.03504C26.6113 5.92395 27.3519 5.9485 27.9315 5.94633C31.8374 5.93169 36.5213 7.06114 39.0052 10.3083C39.4052 10.8311 39.6094 11.2935 40.0994 11.7803C40.6605 11.9445 40.9341 11.908 41.3886 12.0097C41.048 12.0347 39.9716 12.1593 39.7306 11.9674C39.2752 11.6048 38.9287 10.7746 38.5482 10.3699C37.974 9.75897 37.301 9.12475 36.6095 8.65424C36.4765 8.5636 36.3804 8.24737 36.2466 8.15409C36.0222 8.04504 35.7253 8.11729 35.5021 8.00034C35.4603 7.97842 35.4113 7.66981 35.3624 7.6595C34.8647 7.55473 33.6851 7.52086 33.4932 6.9443L33.4106 6.98948C32.9971 6.91126 30.7203 6.65532 30.5628 6.46143L30.8977 6.4544L30.8947 6.38784C30.68 6.3061 30.5714 6.33756 30.3786 6.28846C28.9609 5.92758 27.4479 6.15932 26.05 6.03504Z" fill="var(--fill-0, #CBC8BF)"/>
<path id="Vector_7" d="M6.04084 50.5326C5.89541 50.0876 5.9529 45.612 5.95336 44.7638C5.95536 40.9091 5.94317 37.0188 5.97868 33.1624C5.98342 32.6474 6.09217 29.6227 6.1895 29.2987L6.28266 29.3042C6.39481 29.5735 6.31506 30.2565 6.37776 30.6421L6.46108 30.6881L6.57364 30.584C6.59438 30.8563 6.65069 31.1881 6.44836 31.4066C6.33639 31.3748 6.37231 31.3861 6.28829 31.2658C5.86137 31.8673 6.1353 42.7715 6.03622 44.4684C5.9475 45.9868 6.21346 48.9271 6.04084 50.5326Z" fill="var(--fill-0, #CBC8BF)"/>
<path id="Vector_8" d="M41.7471 45.477C41.6715 46.486 40.8968 46.5064 40.5299 47.2746C40.3256 47.3632 40.0937 47.437 39.9692 47.6162C39.9411 47.8412 39.9631 47.8678 40.1267 48.0449C39.7097 48.0261 39.5115 48.0673 39.2117 47.7729C39.1611 47.6059 39.157 47.6765 39.2358 47.5077C39.4134 47.3588 39.6918 47.3413 39.9271 47.3027C40.2008 46.7224 40.7443 46.5426 41.2085 46.1124C41.418 45.9184 41.5759 45.7035 41.7471 45.477Z" fill="var(--fill-0, #CBC8BF)"/>
<path id="Vector_9" d="M52.7194 22.3636C53.1646 23.3761 53.2772 25.4034 53.6071 26.1967C53.4524 26.3817 53.4922 26.2915 53.4676 26.5444L53.528 26.678L53.6814 26.7269L53.5894 26.8263L53.4071 27.0546C53.3864 26.9025 53.39 26.8802 53.3182 26.7484L53.3077 26.8417C53.2255 26.4456 53.114 25.9876 53.073 25.5859C53.0536 25.3952 53.1467 24.8592 53.1122 24.7043C52.9542 23.995 52.68 23.0857 52.7194 22.3636Z" fill="var(--fill-0, #CBC8BF)"/>
<path id="Vector_10" d="M53.5896 26.8263C53.8438 27.187 53.6417 28.1207 53.5986 28.616C53.4318 28.0327 53.5153 27.4976 53.4073 27.0546L53.5896 26.8263Z" fill="var(--fill-0, #CBC8BF)"/>
</g>
</svg>
