<svg preserveAspectRatio="none" width="100%" height="100%" overflow="visible" style="display: block;" viewBox="0 0 60 60" fill="none" xmlns="http://www.w3.org/2000/svg">
<g id="Connected [Vectorized]">
<path id="Vector" d="M43.7385 38.8847C43.5026 39.0052 43.4415 39.0917 43.2629 39.2921L43.2086 39.1448L43.1034 39.2489C42.3292 39.3732 42.0963 39.8581 41.0195 39.441C41.018 39.4139 41.0163 39.3867 41.0143 39.3595C41.0127 39.3381 40.9987 39.2114 40.9959 39.2091C40.5294 38.8252 40.0377 38.2601 39.59 37.8782L39.6404 37.8917C39.482 37.7157 39.3025 37.6885 39.0928 37.4497C38.6224 36.9141 38.1685 36.3706 37.7099 35.8256C37.458 35.5263 36.9885 35.2799 36.7022 35.003C36.3577 34.6677 36.056 34.2563 35.7432 33.891C35.5976 33.7278 35.1811 33.5231 34.9571 33.3147C35.0547 33.1792 35.0445 33.2342 35.0404 33.0898C34.757 32.9291 34.9481 33.1708 34.6445 32.9409C34.0038 32.4555 33.6445 31.7479 33.1 31.2173L27.4889 25.7858C27.0489 25.3657 27.1239 25.0591 26.4222 24.7036L26.2958 24.7903C26.147 24.617 26.3477 24.7601 26.336 24.4533C26.0446 24.2378 25.4279 23.7884 25.1395 23.5446C25.098 23.2957 25.1307 23.2803 24.9488 23.1014C23.7932 21.9651 22.5766 20.8692 21.3675 19.7946C20.962 19.4341 20.5448 18.7686 20.3272 18.286C19.9543 17.459 20.5096 17.4097 20.7591 16.8204L20.781 16.7674C21.0615 16.7998 21.5106 16.4073 21.9224 16.3816C22.0358 16.3745 22.9321 16.3568 22.9797 16.403C23.1432 16.5616 23.1083 16.5487 23.4473 16.5498L23.4811 16.6244C23.1197 16.7425 22.9548 16.4364 22.5599 16.5353L22.5767 16.5874C23.2082 16.8254 23.8579 16.9108 24.3483 16.3835C24.9363 15.7516 25.559 15.0228 26.1842 14.4345C26.6919 13.9568 27.1763 13.4977 27.6524 12.9768C28.3021 12.3094 29.0678 11.7748 29.5874 10.984C29.6411 10.9022 29.991 10.7458 30.0636 10.6525C31.0232 9.48089 32.1929 8.51474 33.2404 7.45308C33.9438 6.76759 35.8767 6.19173 36.8322 6.38134C36.8721 6.38925 36.9562 6.29832 36.9851 6.26972L37.0068 6.2481L37.082 6.30271L37.014 6.42511C37.0743 6.51107 38.9141 7.29253 39.2177 7.72789C39.776 8.52845 40.6753 9.2767 41.3745 9.97572C42.1934 10.7944 43.0802 11.7684 43.9821 12.4851C44.1131 12.4688 44.155 12.4512 44.2716 12.5005L44.2707 12.5606L44.1672 12.6278C44.3561 12.7571 44.8378 12.6385 45.0419 12.5543C45.7877 12.247 46.5864 10.9103 47.052 10.335L47.3019 10.3211C47.8734 9.8116 48.5999 9.03089 49.0556 8.41982L49.24 8.43066C49.5089 8.18679 50.0316 7.70035 50.2569 7.43011C50.4012 7.25837 50.8036 6.55753 50.9592 6.45207C51.5531 6.04935 51.8578 5.85638 52.2976 5.27259C52.4902 5.01703 53.4009 4.45102 53.7005 4.43643C53.8124 4.43099 53.7768 4.47076 53.9032 4.36786C53.8144 4.35311 53.7673 4.35496 53.6998 4.29547C53.8516 4.15973 53.8934 4.15995 54.0864 4.13269C54.4575 4.29366 55.5853 5.43012 55.7844 5.82062C55.8397 5.929 55.8874 6.43619 55.901 6.59398C55.5762 7.71107 52.3438 10.2518 51.5322 11.3262C50.9258 12.1289 47.4361 14.862 47.6658 15.7993C48.0366 15.9087 47.9252 15.9297 48.1815 16.1915C49.2348 17.2672 50.3513 18.282 51.3867 19.3764C52.1307 20.1576 52.9671 20.8438 53.4922 21.8097C54.0224 22.7811 54.1458 23.9232 53.8352 24.9855C53.791 25.1285 53.7432 25.2704 53.6921 25.4111C53.2622 25.6338 53.2802 26.3414 52.6028 26.7839C52.0071 27.173 51.1224 28.1425 50.5836 28.687L47.9186 31.3739L44.46 34.7913C44.1277 35.1185 43.6058 35.5036 43.3872 35.9012C43.2528 36.1454 43.0942 36.5167 43.1887 36.7962C43.3464 37.0273 43.365 37.3701 43.4146 37.4813C43.4487 37.1764 43.4594 37.0345 43.4452 36.7292C43.4902 36.849 43.5178 36.9643 43.6082 37.0494L43.6716 37.0348C43.8439 37.5414 44.0613 38.4109 43.7385 38.8847Z" fill="var(--fill-0, #CBC8BF)"/>
<path id="Vector_2" d="M12.2633 44.2877C11.1659 43.0202 9.75669 41.8309 8.58523 40.6063C7.37585 39.3421 6.0715 38.2568 5.99263 36.3558C5.94534 35.2156 6.35245 33.9999 7.13316 33.1651C9.34583 30.6869 11.8497 28.4248 14.1732 26.0475C14.6708 25.5384 14.0269 24.599 13.9924 23.9176C13.9371 22.8266 14.6848 22.0624 15.8209 22.03C16.3951 22.0133 16.957 22.1975 17.4099 22.5508C17.8515 22.8934 18.3026 23.4326 18.718 23.8266C20.1671 25.2006 21.5091 26.6655 22.9352 28.0788L37.1848 42.186C38.1666 43.1498 38.3184 45.2054 36.9352 45.8852C35.8689 46.4093 35.0608 45.6208 34.0635 45.6314C33.6895 45.6841 33.6646 45.9852 33.4791 45.9971L33.4736 45.867C33.1239 46.0154 30.5472 48.7556 30.1178 49.1624C28.932 50.286 27.8792 51.5074 26.5636 52.5421C26.5158 52.6713 26.5089 52.6777 26.5436 52.8056C26.2654 52.8898 25.1986 53.153 25.0958 53.3432C25.2237 53.4424 25.5058 53.4185 25.6838 53.4208L25.6514 53.4626L25.7046 53.4362L25.626 53.4142L25.5958 53.4792C24.4926 53.755 24.0939 53.8479 22.9499 53.9018C22.5002 53.8172 21.6727 53.4698 21.3107 53.1756C19.9912 52.0179 18.4345 50.5159 17.2485 49.2377C15.0353 46.8523 15.055 47.86 13.093 49.7596C12.1238 50.6979 11.0359 51.8624 10.0183 52.7818C9.76208 53.0134 9.52695 53.3279 9.27499 53.5695C8.46663 54.2991 7.51941 55.5692 6.53808 55.9938C5.88669 56.2757 5.07151 55.7983 4.51835 55.4897C4.0587 54.7655 3.78053 54.0852 4.13091 53.2285C4.47116 52.3966 6.65503 50.589 7.35482 49.8743C8.34581 48.8623 9.29696 47.8088 10.3108 46.8165C10.9035 46.2363 11.6042 45.783 12.057 45.071C12.1997 44.8466 12.2238 44.5464 12.2633 44.2877Z" fill="var(--fill-0, #CBC8BF)"/>
<path id="Vector_3" d="M53.2998 4.03553C53.698 3.98544 54.0602 3.93473 54.4544 4.04336C55.6368 4.36919 56.2051 5.44393 55.9009 6.59394C55.8873 6.43615 55.8395 5.92896 55.7843 5.82058C55.5851 5.43008 54.4574 4.29362 54.0862 4.13265C53.8932 4.15991 53.8515 4.15969 53.6996 4.29543C53.7671 4.35492 53.8142 4.35307 53.9031 4.36782C53.7766 4.47072 53.8122 4.43095 53.7003 4.43639C53.4007 4.45098 52.49 5.01699 52.2975 5.27254C51.8577 5.85634 51.5529 6.04931 50.959 6.45203C50.8034 6.55749 50.401 7.25833 50.2567 7.43007C50.0314 7.70031 49.5088 8.18675 49.2399 8.43062L49.0554 8.41978C48.5997 9.03085 47.8732 9.81156 47.3017 10.321L47.0518 10.3349C46.5863 10.9102 45.7875 12.247 45.0418 12.5543C44.8376 12.6384 44.356 12.7571 44.167 12.6277L44.2706 12.5606L44.2714 12.5005C44.1548 12.4512 44.1129 12.4688 43.982 12.4851C43.0801 11.7684 42.1933 10.7943 41.3743 9.97568C40.6751 9.27665 39.7758 8.52841 39.2176 7.72785C38.914 7.29249 37.0742 6.51103 37.0138 6.42507L37.0818 6.30267L37.0066 6.24806L36.985 6.26968C36.956 6.29828 36.872 6.38921 36.8321 6.3813C35.8765 6.19169 33.9437 6.76755 33.2402 7.45304C32.1927 8.5147 31.0231 9.48085 30.0635 10.6524C29.9908 10.7458 29.641 10.9022 29.5872 10.984C29.0676 11.7747 28.3019 12.3093 27.6522 12.9768C27.1762 13.4976 26.6918 13.9568 26.1841 14.4345C25.5589 15.0227 24.9362 15.7516 24.3482 16.3835C23.8577 16.9107 23.2081 16.8253 22.5766 16.5874L22.5597 16.5352C22.9547 16.4364 23.1196 16.7424 23.4809 16.6244L23.4471 16.5498C23.1081 16.5487 23.143 16.5616 22.9796 16.4029C22.932 16.3568 22.0356 16.3745 21.9222 16.3816C21.5104 16.4073 21.0613 16.7998 20.7809 16.7673L20.759 16.8204C20.5095 17.4097 19.9541 17.4589 20.327 18.2859C20.5447 18.7686 20.9618 19.4341 21.3674 19.7945C22.5764 20.8692 23.7931 21.965 24.9487 23.1014C25.1305 23.2802 25.0978 23.2956 25.1393 23.5446C25.4277 23.7884 26.0444 24.2378 26.3359 24.4533C26.3475 24.7601 26.1468 24.617 26.2956 24.7903L26.4221 24.7035C27.1238 25.0591 27.0487 25.3656 27.4888 25.7858L33.0998 31.2173C33.6444 31.7479 34.0036 32.4555 34.6444 32.9409C34.9479 33.1708 34.7568 32.9291 35.0402 33.0897C35.0444 33.2342 35.0545 33.1792 34.9569 33.3147C35.1809 33.523 35.5975 33.7277 35.743 33.891C36.0559 34.2562 36.3576 34.6676 36.7021 35.003C36.9884 35.2799 37.4578 35.5262 37.7097 35.8255C38.1684 36.3705 38.6223 36.914 39.0926 37.4496C39.3023 37.6884 39.4819 37.7157 39.6402 37.8916L39.5899 37.8781C40.0376 38.2601 40.5293 38.8252 40.9958 39.209C40.9985 39.2113 41.0126 39.3381 41.0142 39.3595C41.0161 39.3866 41.0178 39.4138 41.0193 39.441C42.0961 39.8581 42.3291 39.3732 43.1033 39.2489L43.2085 39.1448L43.2627 39.2921C43.4413 39.0917 43.5024 39.0052 43.7383 38.8847C43.1145 40.5535 41.3295 40.2221 40.2816 39.1896C38.5528 37.4862 36.8597 35.7407 35.1552 34.0135L26.4289 25.2821C25.828 24.6739 25.1921 24.1513 24.6085 23.5114C23.3226 22.1014 21.8115 20.8718 20.5535 19.4411C20.1507 18.887 19.995 18.1671 20.1086 17.5327C20.4238 15.6639 22.0045 15.9761 23.3652 16.3771C24.0846 16.5891 24.7756 15.3471 25.2966 14.8547C27.7105 12.5726 29.9798 10.1332 32.3753 7.83478C33.2056 7.0382 33.7871 6.39578 34.9494 6.11259C37.4679 5.36679 39.0698 7.03708 40.7069 8.66312C41.51 9.45958 42.3023 10.2666 43.084 11.0841C43.9326 11.9596 44.5166 12.7681 45.6264 11.5843C47.4277 9.6629 49.3492 7.87509 51.1544 5.96037C51.8152 5.25943 52.5329 4.61444 53.2998 4.03553Z" fill="var(--fill-0, #CBC8BF)"/>
<path id="Vector_4" d="M43.6718 37.035L43.6084 37.0497C43.5179 36.9645 43.4903 36.8493 43.4454 36.7294C43.4596 37.0347 43.4488 37.1767 43.4147 37.4815C43.3652 37.3703 43.3465 37.0275 43.1888 36.7964C43.0944 36.5169 43.2529 36.1456 43.3873 35.9014C43.606 35.5038 44.1278 35.1188 44.4602 34.7916L47.9187 31.3742L50.5838 28.6872C51.1226 28.1427 52.0072 27.1733 52.6029 26.7842C53.2803 26.3417 53.2623 25.6341 53.6923 25.4114C53.5896 25.8252 53.4377 26.0995 53.1705 26.426C51.8021 28.0978 50.193 29.59 48.6541 31.1014C47.0886 32.6387 45.6094 34.2569 43.9942 35.7412C43.8413 35.8821 43.679 36.0374 43.5336 36.1862C43.5595 36.3282 43.6806 36.9324 43.6718 37.035Z" fill="var(--fill-0, #CBC8BF)"/>
<path id="Vector_5" d="M22.95 53.9016C24.094 53.8478 24.4927 53.7549 25.5958 53.4791L25.6261 53.414L25.7046 53.4361L25.6514 53.4624L25.6839 53.4207C25.5058 53.4184 25.2238 53.4423 25.0959 53.343C25.1987 53.1529 26.2655 52.8897 26.5437 52.8054C26.509 52.6776 26.5159 52.6712 26.5637 52.5419C27.8793 51.5073 28.9321 50.2858 30.1179 49.1622C30.5473 48.7554 33.124 46.0152 33.4737 45.8669L33.4792 45.9969C33.6647 45.985 33.6896 45.6839 34.0636 45.6313C33.9112 45.9672 33.481 46.2933 33.2091 46.5662L31.1843 48.5632C30.1021 49.626 29.0746 50.7502 27.9778 51.8049C26.6072 53.123 25.0347 54.575 22.95 53.9016Z" fill="var(--fill-0, #CBC8BF)"/>
</g>
</svg>
